<svg xmlns="http://www.w3.org/2000/svg" viewBox="0 0 528 325" width="528" height="325">
	<style>
		tspan { white-space:pre }
		.shp0 { fill: none;stroke: #ff7900;stroke-linecap:round;stroke-width: 3;stroke-dasharray: 0,0,0,12 } 
		.shp1 { fill: none;stroke: #ff7900;stroke-linecap:round;stroke-width: 3;stroke-dasharray: 0,0,0,0,0,12 } 
		.shp2 { fill: #e4af43;stroke: #e4af43;stroke-linecap:round;stroke-linejoin:round;stroke-width: 2 } 
		.shp3 { opacity: 0.902;fill: #4d4d4e } 
		.shp4 { fill: #435c30;stroke: #435c30;stroke-linecap:round;stroke-linejoin:round;stroke-width: 2 } 
		.shp5 { fill: #035762;stroke: #035762;stroke-linecap:round;stroke-linejoin:round;stroke-width: 2 } 
		.shp6 { fill: #b92e52;stroke: #b92e52;stroke-linecap:round;stroke-linejoin:round;stroke-width: 2 } 
		.shp7 { fill: #ffffff } 
		.shp8 { fill: #ff8300 } 
	</style>
	<g id="CAPACIDADES">
		<g id="Group-29">
			<g id="gráfico">
				<g id="Group-18">
					<g id="Group-15">
						<path id="Stroke-3" fill-rule="evenodd" class="shp0" d="M8.85 215.74L12.34 215.74" />
						<path id="Stroke-3" fill-rule="evenodd" class="shp0" d="M8.85 84.7L12.34 84.7" />
						<path id="Stroke-3" fill-rule="evenodd" class="shp0" d="M8.85 65.98L12.34 65.98" />
						<path id="Stroke-3" fill-rule="evenodd" class="shp0" d="M517 97.66L520.48 97.66" />
						<path id="Stroke-3" fill-rule="evenodd" class="shp0" d="M517 116.38L520.48 116.38" />
						<path id="Stroke-3" fill-rule="evenodd" class="shp0" d="M517 135.1L520.48 135.1" />
						<path id="Stroke-3" fill-rule="evenodd" class="shp0" d="M517 241.34L520.48 241.34" />
						<path id="Stroke-3" fill-rule="evenodd" class="shp0" d="M8.85 103.42L12.34 103.42" />
						<path id="Stroke-5" fill-rule="evenodd" class="shp1" d="M328.96 10.91L488.44 10.91C504.27 10.91 517.15 23.71 517.15 39.45L517.15 72.18" />
						<path id="Stroke-9" fill-rule="evenodd" class="shp1" d="M9.14 47.11L9.14 39.65C9.14 23.8 22.02 10.91 37.84 10.91L234.27 10.91" />
						<path id="Stroke-11" fill-rule="evenodd" class="shp1" d="M205 314.27L37.84 314.27C22.02 314.27 9.14 301.45 9.14 285.7L9.14 226.53" />
						<path id="Stroke-13" fill-rule="evenodd" class="shp1" d="M516.2 255.78L516.2 285.61C516.2 301.41 503.33 314.27 487.51 314.27L291.07 314.27" />
					</g>
					<path id="Fill-10" fill-rule="evenodd" class="shp2" d="M216.21 19.84C218.59 18.11 221.07 16.52 223.65 15.07C223.73 15.03 223.81 14.98 223.89 14.93C234.53 9.02 246.76 5.62 259.78 5.53C259.96 5.53 260.13 5.52 260.31 5.52C260.48 5.52 260.66 5.53 260.83 5.53L287.53 5.53L313.34 5.53L320.51 10.3L313.55 14.93L313.34 15.07L305.88 15.07L296.97 15.07L260.86 15.07L259.76 15.07C251.37 15.14 243.22 16.78 235.66 19.84C227.67 23.09 220.32 27.93 214.03 34.21C201.67 46.56 194.86 62.98 194.86 80.44C194.86 97.91 201.67 114.33 214.03 126.68C226.39 139.02 242.83 145.83 260.31 145.83C277.79 145.83 294.23 139.02 306.59 126.68C318.95 114.33 325.76 97.91 325.76 80.44C325.76 62.98 318.95 46.56 306.59 34.21C300.3 27.93 292.95 23.09 284.95 19.84L304.41 19.84C323.14 33.47 335.31 55.53 335.31 80.44C335.31 121.83 301.73 155.37 260.31 155.37C218.89 155.37 185.31 121.83 185.31 80.44C185.31 55.53 197.48 33.47 216.21 19.84Z" />
					<path id="AGILETRANSFORMATION" fill-rule="evenodd" class="shp3" d="M239.91 73.26L242.28 63.67L245.37 63.67L247.75 73.26L246.18 73.26L245.67 71.21L241.98 71.21L241.47 73.26L239.91 73.26ZM243.48 64.98L242.29 69.83L245.36 69.83L244.18 64.98L243.48 64.98ZM253.03 69.6L253.03 68.22L255.76 68.22L255.76 73.1C255.51 73.16 255 73.23 254.23 73.31C253.46 73.38 252.9 73.42 252.55 73.42C251.1 73.42 250.09 73.02 249.54 72.21C248.99 71.41 248.72 70.15 248.72 68.44C248.72 66.73 249 65.48 249.56 64.7C250.13 63.91 251.11 63.52 252.5 63.52C253.32 63.52 254.24 63.61 255.27 63.8L255.76 63.9L255.7 65.13C254.57 64.98 253.56 64.91 252.67 64.91C251.77 64.91 251.16 65.16 250.82 65.66C250.49 66.17 250.33 67.1 250.33 68.46C250.33 69.83 250.48 70.77 250.8 71.28C251.11 71.8 251.74 72.06 252.69 72.06C253.38 72.06 253.88 72.02 254.22 71.93L254.22 69.6L253.03 69.6ZM257.71 73.26L257.71 63.67L259.26 63.67L259.26 73.26L257.71 73.26ZM266.85 73.26L261.47 73.26L261.47 63.67L263.03 63.67L263.03 71.88L266.85 71.88L266.85 73.26ZM268.12 73.26L268.12 63.67L274.17 63.67L274.17 65.03L269.68 65.03L269.68 67.75L273.33 67.75L273.33 69.09L269.68 69.09L269.68 71.89L274.17 71.89L274.17 73.26L268.12 73.26ZM198.85 84.95L198.85 83.56L205.85 83.56L205.85 84.95L203.15 84.95L203.15 93.15L201.58 93.15L201.58 84.95L198.85 84.95ZM208.69 89.74L208.69 93.15L207.14 93.15L207.14 83.56L210.78 83.56C212.94 83.56 214.03 84.58 214.03 86.62C214.03 87.98 213.5 88.9 212.46 89.39L214.04 93.15L212.33 93.15L210.95 89.74L208.69 89.74ZM212.43 86.63C212.43 85.48 211.88 84.91 210.78 84.91L208.69 84.91L208.69 88.39L210.81 88.39C211.37 88.39 211.78 88.23 212.04 87.91C212.3 87.59 212.43 87.16 212.43 86.63ZM214.96 93.15L217.33 83.56L220.42 83.56L222.8 93.15L221.24 93.15L220.72 91.1L217.04 91.1L216.52 93.15L214.96 93.15ZM218.53 84.87L217.34 89.72L220.41 89.72L219.23 84.87L218.53 84.87ZM224.18 93.15L224.18 83.56L226.89 83.56L229.8 91.78L230.01 91.78L230.01 83.56L231.57 83.56L231.57 93.15L228.91 93.15L225.93 84.92L225.73 84.92L225.73 93.15L224.18 93.15ZM236.59 84.77C235.41 84.77 234.82 85.18 234.82 86.01C234.82 86.44 234.96 86.75 235.24 86.93C235.52 87.11 236.13 87.34 237.09 87.6C238.05 87.87 238.72 88.19 239.11 88.56C239.51 88.92 239.7 89.51 239.7 90.3C239.7 91.31 239.41 92.06 238.84 92.56C238.27 93.06 237.49 93.31 236.5 93.31C235.7 93.31 234.83 93.22 233.86 93.03L233.36 92.93L233.51 91.68C234.77 91.85 235.74 91.94 236.4 91.94C237.56 91.94 238.13 91.42 238.13 90.4C238.13 90 238 89.7 237.74 89.51C237.48 89.32 236.89 89.11 235.98 88.88C235.06 88.65 234.38 88.33 233.93 87.93C233.49 87.53 233.26 86.9 233.26 86.03C233.26 85.16 233.54 84.5 234.11 84.06C234.67 83.62 235.46 83.4 236.45 83.4C237.17 83.4 238.02 83.48 239 83.65L239.49 83.73L239.37 84.99C238.06 84.84 237.14 84.77 236.59 84.77ZM241.38 93.15L241.38 83.56L247.33 83.56L247.33 84.92L242.94 84.92L242.94 88.16L246.59 88.16L246.59 89.51L242.94 89.51L242.94 93.15L241.38 93.15ZM255.3 92.13C254.73 92.92 253.72 93.31 252.27 93.31C250.83 93.31 249.81 92.91 249.24 92.13C248.66 91.34 248.37 90.1 248.37 88.41C248.37 86.72 248.66 85.46 249.24 84.64C249.83 83.82 250.84 83.41 252.27 83.41C253.71 83.41 254.72 83.82 255.3 84.64C255.88 85.45 256.17 86.71 256.17 88.41C256.17 90.11 255.88 91.35 255.3 92.13ZM250.45 91.12C250.77 91.68 251.38 91.95 252.27 91.95C253.17 91.95 253.77 91.68 254.09 91.14C254.4 90.6 254.56 89.69 254.56 88.42C254.56 87.14 254.39 86.22 254.07 85.64C253.75 85.06 253.15 84.77 252.27 84.77C251.4 84.77 250.79 85.06 250.47 85.64C250.14 86.22 249.98 87.14 249.98 88.4C249.98 89.67 250.14 90.57 250.45 91.12ZM259.53 89.74L259.53 93.15L257.97 93.15L257.97 83.56L261.61 83.56C263.78 83.56 264.86 84.58 264.86 86.62C264.86 87.98 264.34 88.9 263.29 89.39L264.87 93.15L263.17 93.15L261.78 89.74L259.53 89.74ZM263.26 86.63C263.26 85.48 262.71 84.91 261.61 84.91L259.53 84.91L259.53 88.39L261.64 88.39C262.2 88.39 262.61 88.23 262.87 87.91C263.13 87.59 263.26 87.16 263.26 86.63ZM266.62 93.15L266.62 83.56L269.33 83.56L271.47 91.05L273.61 83.56L276.33 83.56L276.33 93.15L274.76 93.15L274.76 85.29L274.55 85.29L272.28 92.76L270.66 92.76L268.39 85.29L268.18 85.29L268.18 93.15L266.62 93.15ZM277.7 93.15L280.06 83.56L283.16 83.56L285.54 93.15L283.97 93.15L283.45 91.1L279.77 91.1L279.25 93.15L277.7 93.15ZM281.27 84.87L280.08 89.72L283.14 89.72L281.97 84.87L281.27 84.87ZM285.99 84.95L285.99 83.56L292.99 83.56L292.99 84.95L290.28 84.95L290.28 93.15L288.72 93.15L288.72 84.95L285.99 84.95ZM294.27 93.15L294.27 83.56L295.83 83.56L295.83 93.15L294.27 93.15ZM304.55 92.13C303.98 92.92 302.97 93.31 301.53 93.31C300.08 93.31 299.07 92.91 298.49 92.13C297.91 91.34 297.62 90.1 297.62 88.41C297.62 86.72 297.91 85.46 298.49 84.64C299.08 83.82 300.09 83.41 301.53 83.41C302.96 83.41 303.97 83.82 304.55 84.64C305.13 85.45 305.42 86.71 305.42 88.41C305.42 90.11 305.13 91.35 304.55 92.13ZM299.71 91.12C300.02 91.68 300.63 91.95 301.53 91.95C302.42 91.95 303.03 91.68 303.34 91.14C303.65 90.6 303.81 89.69 303.81 88.42C303.81 87.14 303.65 86.22 303.32 85.64C303 85.06 302.4 84.77 301.53 84.77C300.65 84.77 300.05 85.06 299.72 85.64C299.39 86.22 299.23 87.14 299.23 88.4C299.23 89.67 299.39 90.57 299.71 91.12ZM307.22 93.15L307.22 83.56L309.94 83.56L312.85 91.78L313.06 91.78L313.06 83.56L314.62 83.56L314.62 93.15L311.96 93.15L308.97 84.92L308.78 84.92L308.78 93.15L307.22 93.15Z" />
					<path id="SOFTWAREDEVELOPMENT" fill-rule="evenodd" class="shp3" d="M228.13 230.14C226.94 230.14 226.35 230.55 226.35 231.38C226.35 231.81 226.49 232.12 226.77 232.3C227.05 232.48 227.67 232.7 228.63 232.97C229.58 233.24 230.26 233.55 230.65 233.92C231.04 234.29 231.24 234.87 231.24 235.67C231.24 236.67 230.95 237.43 230.38 237.93C229.8 238.43 229.02 238.68 228.03 238.68C227.24 238.68 226.36 238.58 225.4 238.4L224.89 238.3L225.05 237.05C226.31 237.22 227.27 237.3 227.93 237.3C229.09 237.3 229.67 236.79 229.67 235.76C229.67 235.36 229.54 235.07 229.28 234.87C229.02 234.68 228.43 234.47 227.51 234.24C226.6 234.02 225.92 233.7 225.47 233.3C225.02 232.9 224.8 232.26 224.8 231.4C224.8 230.53 225.08 229.87 225.64 229.43C226.21 228.98 226.99 228.76 227.99 228.76C228.71 228.76 229.56 228.85 230.54 229.02L231.03 229.1L230.9 230.36C229.59 230.21 228.67 230.14 228.13 230.14ZM239.43 237.5C238.86 238.28 237.85 238.68 236.4 238.68C234.96 238.68 233.94 238.28 233.36 237.49C232.79 236.7 232.5 235.46 232.5 233.78C232.5 232.09 232.79 230.83 233.37 230.01C233.96 229.19 234.97 228.78 236.4 228.78C237.84 228.78 238.85 229.19 239.43 230C240.01 230.82 240.29 232.08 240.29 233.78C240.29 235.47 240.01 236.72 239.43 237.5ZM234.58 236.49C234.9 237.04 235.51 237.32 236.4 237.32C237.3 237.32 237.9 237.05 238.22 236.51C238.53 235.96 238.68 235.06 238.68 233.78C238.68 232.51 238.52 231.58 238.2 231C237.88 230.42 237.28 230.14 236.4 230.14C235.53 230.14 234.92 230.42 234.6 231C234.27 231.58 234.11 232.5 234.11 233.77C234.11 235.03 234.27 235.94 234.58 236.49ZM242.1 238.52L242.1 228.93L248.05 228.93L248.05 230.29L243.65 230.29L243.65 233.52L247.31 233.52L247.31 234.88L243.65 234.88L243.65 238.52L242.1 238.52ZM248.58 230.32L248.58 228.93L255.58 228.93L255.58 230.32L252.88 230.32L252.88 238.52L251.31 238.52L251.31 230.32L248.58 230.32ZM256.1 228.93L257.74 228.93L259.11 237.18L259.4 237.18L261.22 228.96L263.04 228.96L264.86 237.18L265.17 237.18L266.54 228.93L268.18 228.93L266.29 238.52L263.79 238.52L262.13 230.84L260.5 238.52L257.98 238.52L256.1 228.93ZM268.8 238.52L271.16 228.93L274.26 228.93L276.64 238.52L275.07 238.52L274.55 236.46L270.87 236.46L270.35 238.52L268.8 238.52ZM272.37 230.23L271.18 235.09L274.24 235.09L273.07 230.23L272.37 230.23ZM279.56 235.11L279.56 238.52L278.01 238.52L278.01 228.93L281.65 228.93C283.82 228.93 284.9 229.95 284.9 231.98C284.9 233.35 284.38 234.27 283.33 234.76L284.91 238.52L283.2 238.52L281.82 235.11L279.56 235.11ZM283.3 232C283.3 230.85 282.75 230.28 281.65 230.28L279.56 230.28L279.56 233.76L281.68 233.76C282.24 233.76 282.65 233.6 282.91 233.28C283.17 232.96 283.3 232.53 283.3 232ZM286.66 238.52L286.66 228.93L292.71 228.93L292.71 230.29L288.22 230.29L288.22 233.01L291.87 233.01L291.87 234.35L288.22 234.35L288.22 237.15L292.71 237.15L292.71 238.52L286.66 238.52ZM216.43 258.41L213.11 258.41L213.11 248.82L216.43 248.82C217.91 248.82 218.91 249.19 219.46 249.94C220 250.69 220.27 251.86 220.27 253.46C220.27 254.27 220.21 254.96 220.11 255.52C220 256.08 219.81 256.6 219.54 257.05C219.01 257.96 217.97 258.41 216.43 258.41ZM218.66 253.46C218.66 252.3 218.51 251.46 218.22 250.95C217.93 250.44 217.34 250.18 216.43 250.18L214.67 250.18L214.67 257.04L216.43 257.04C217.36 257.04 217.97 256.7 218.28 256.02C218.43 255.67 218.53 255.3 218.58 254.91C218.63 254.52 218.66 254.03 218.66 253.46ZM222.09 258.41L222.09 248.82L228.14 248.82L228.14 250.18L223.64 250.18L223.64 252.9L227.3 252.9L227.3 254.24L223.64 254.24L223.64 257.04L228.14 257.04L228.14 258.41L222.09 258.41ZM235.14 248.82L236.76 248.82L234.41 258.41L231.36 258.41L229 248.82L230.63 248.82L232.53 257.04L233.23 257.04L235.14 248.82ZM238.15 258.41L238.15 248.82L244.19 248.82L244.19 250.18L239.7 250.18L239.7 252.9L243.35 252.9L243.35 254.24L239.7 254.24L239.7 257.04L244.19 257.04L244.19 258.41L238.15 258.41ZM251.26 258.41L245.89 258.41L245.89 248.82L247.44 248.82L247.44 257.03L251.26 257.03L251.26 258.41ZM259.05 257.39C258.48 258.17 257.47 258.57 256.02 258.57C254.58 258.57 253.56 258.17 252.99 257.38C252.41 256.59 252.12 255.35 252.12 253.67C252.12 251.98 252.41 250.72 252.99 249.9C253.58 249.08 254.59 248.67 256.02 248.67C257.46 248.67 258.47 249.08 259.05 249.89C259.63 250.71 259.92 251.97 259.92 253.67C259.92 255.36 259.63 256.61 259.05 257.39ZM254.2 256.38C254.52 256.93 255.13 257.21 256.02 257.21C256.92 257.21 257.52 256.94 257.84 256.4C258.15 255.85 258.31 254.95 258.31 253.67C258.31 252.4 258.14 251.47 257.82 250.89C257.5 250.31 256.9 250.03 256.02 250.03C255.15 250.03 254.54 250.31 254.22 250.89C253.89 251.47 253.73 252.39 253.73 253.66C253.73 254.92 253.89 255.83 254.2 256.38ZM265.24 255.43L263.28 255.43L263.28 258.41L261.72 258.41L261.72 248.82L265.24 248.82C267.41 248.82 268.5 249.89 268.5 252.04C268.5 253.14 268.22 253.98 267.68 254.56C267.13 255.14 266.32 255.43 265.24 255.43ZM263.28 254.09L265.22 254.09C266.34 254.09 266.9 253.4 266.9 252.04C266.9 251.39 266.77 250.91 266.5 250.61C266.23 250.31 265.8 250.17 265.22 250.17L263.28 250.17L263.28 254.09ZM270 258.41L270 248.82L272.7 248.82L274.84 256.31L276.98 248.82L279.7 248.82L279.7 258.41L278.13 258.41L278.13 250.54L277.92 250.54L275.65 258.02L274.03 258.02L271.76 250.54L271.55 250.54L271.55 258.41L270 258.41ZM281.9 258.41L281.9 248.82L287.94 248.82L287.94 250.18L283.45 250.18L283.45 252.9L287.1 252.9L287.1 254.24L283.45 254.24L283.45 257.04L287.94 257.04L287.94 258.41L281.9 258.41ZM289.64 258.41L289.64 248.82L292.35 248.82L295.27 257.04L295.48 257.04L295.48 248.82L297.03 248.82L297.03 258.41L294.37 258.41L291.39 250.18L291.19 250.18L291.19 258.41L289.64 258.41ZM298.32 250.21L298.32 248.82L305.32 248.82L305.32 250.21L302.62 250.21L302.62 258.41L301.05 258.41L301.05 250.21L298.32 250.21Z" />
					<path id="Fill-12" fill-rule="evenodd" class="shp4" d="M507.67 123.88C494.03 105.16 471.94 93 447 93C405.58 93 372 126.55 372 167.92C372 209.31 405.58 242.85 447 242.85C471.94 242.85 494.03 230.69 507.67 211.98L507.67 192.53C504.42 200.53 499.57 207.87 493.28 214.16C480.92 226.5 464.48 233.31 447 233.31C429.52 233.31 413.08 226.5 400.72 214.16C388.36 201.81 381.55 185.39 381.55 167.92C381.55 150.46 388.36 134.04 400.72 121.69C413.08 109.35 429.52 102.54 447 102.54C464.48 102.54 480.92 109.35 493.28 121.69C499.57 127.98 504.42 135.32 507.67 143.32C510.8 151.03 512.45 159.35 512.45 167.92L512.45 204.54L512.45 213.44L512.45 220.83L517.22 227.99L522 220.83L522 195.1L522 167.92C522 154.63 518.53 142.14 512.45 131.31C511 128.74 509.4 126.25 507.67 123.88Z" />
					<path id="Fill-14" fill-rule="evenodd" class="shp5" d="M304.4 305.35C323.13 291.73 335.31 269.66 335.31 244.74C335.31 203.36 301.73 169.82 260.31 169.82C218.89 169.82 185.31 203.36 185.31 244.74C185.31 269.66 197.49 291.73 216.22 305.35L235.68 305.35C227.68 302.11 220.33 297.26 214.03 290.98C201.67 278.63 194.86 262.21 194.86 244.74C194.86 227.28 201.67 210.86 214.03 198.51C226.39 186.16 242.83 179.36 260.31 179.36C277.79 179.36 294.23 186.16 306.59 198.51C318.95 210.86 325.76 227.28 325.76 244.74C325.76 262.21 318.95 278.63 306.59 290.98C300.29 297.26 292.94 302.11 284.94 305.35C277.22 308.48 268.89 310.12 260.31 310.12L223.66 310.12L214.74 310.12L207.28 310.12L200.12 314.9L207.28 319.67L233.11 319.67L260.31 319.67C273.62 319.67 286.12 316.2 296.96 310.12C299.54 308.68 302.02 307.08 304.4 305.35Z" />
					<path id="Fill-16" fill-rule="evenodd" class="shp6" d="M13.55 205.09C13.56 205.09 13.56 205.09 13.56 205.1C15.01 207.67 16.61 210.16 18.34 212.53C31.97 231.24 54.06 243.4 79 243.4C120.42 243.4 154 209.85 154 168.48C154 127.1 120.42 93.55 79 93.55C54.06 93.55 31.97 105.71 18.34 124.42L18.34 143.85C21.59 135.86 26.43 128.53 32.72 122.24C45.08 109.9 61.52 103.09 79 103.09C96.48 103.09 112.92 109.9 125.28 122.24C137.64 134.59 144.45 151.01 144.45 168.48C144.45 185.94 137.64 202.36 125.28 214.71C112.92 227.05 96.48 233.86 79 233.86C61.52 233.86 45.08 227.05 32.72 214.71C26.43 208.42 21.59 201.09 18.34 193.1C15.27 185.54 13.63 177.41 13.56 169.02L13.56 167.93L13.56 131.85L13.56 122.95L13.56 115.5L13.55 115.49L8.78 108.34L4.01 115.5L4.01 141.29C4 141.29 4 141.3 4 141.3L4 168.48C4 168.65 4.01 168.83 4.01 169C4.1 182.1 7.55 194.4 13.55 205.09Z" />
					<path id="Rectangle" class="shp7" d="M15.39 118.95L18.13 118.95L18.13 150.84L15.39 150.84L15.39 118.95Z" />
					<path id="Rectangle" class="shp7" d="M241.09 305.31L241.09 308.04L204.69 308.04L204.69 305.31L241.09 305.31Z" />
					<path id="Rectangle" class="shp7" d="M307.37 16.33L307.37 19.06L273.61 19.06L273.61 16.33L307.37 16.33Z" />
					<path id="DEVOPS&amp;ARCHITECTURE" fill-rule="evenodd" class="shp3" d="M48.41 163.93L45.09 163.93L45.09 154.34L48.41 154.34C49.89 154.34 50.89 154.72 51.43 155.46C51.98 156.21 52.25 157.38 52.25 158.98C52.25 159.79 52.19 160.48 52.09 161.04C51.98 161.61 51.79 162.12 51.52 162.58C50.99 163.48 49.95 163.93 48.41 163.93ZM50.64 158.98C50.64 157.82 50.49 156.98 50.2 156.47C49.91 155.96 49.32 155.7 48.41 155.7L46.65 155.7L46.65 162.56L48.41 162.56C49.33 162.56 49.95 162.22 50.26 161.54C50.41 161.19 50.51 160.83 50.56 160.43C50.61 160.04 50.64 159.56 50.64 158.98ZM54.07 163.93L54.07 154.34L60.11 154.34L60.11 155.7L55.62 155.7L55.62 158.42L59.27 158.42L59.27 159.76L55.62 159.76L55.62 162.56L60.11 162.56L60.11 163.93L54.07 163.93ZM67.11 154.34L68.74 154.34L66.39 163.93L63.33 163.93L60.98 154.34L62.61 154.34L64.51 162.56L65.21 162.56L67.11 154.34ZM76.63 162.91C76.07 163.7 75.06 164.09 73.61 164.09C72.16 164.09 71.15 163.69 70.57 162.9C69.99 162.12 69.7 160.88 69.7 159.19C69.7 157.5 70 156.24 70.58 155.42C71.16 154.6 72.17 154.19 73.61 154.19C75.05 154.19 76.06 154.6 76.63 155.41C77.21 156.23 77.5 157.49 77.5 159.19C77.5 160.89 77.21 162.13 76.63 162.91ZM71.79 161.9C72.11 162.45 72.71 162.73 73.61 162.73C74.51 162.73 75.11 162.46 75.42 161.92C75.74 161.38 75.89 160.47 75.89 159.19C75.89 157.92 75.73 156.99 75.41 156.42C75.09 155.84 74.49 155.55 73.61 155.55C72.73 155.55 72.13 155.84 71.8 156.42C71.48 156.99 71.31 157.92 71.31 159.18C71.31 160.45 71.47 161.35 71.79 161.9ZM82.82 160.95L80.86 160.95L80.86 163.93L79.31 163.93L79.31 154.34L82.82 154.34C85 154.34 86.08 155.42 86.08 157.56C86.08 158.66 85.81 159.5 85.27 160.08C84.72 160.66 83.91 160.95 82.82 160.95ZM80.86 159.61L82.81 159.61C83.93 159.61 84.49 158.93 84.49 157.56C84.49 156.91 84.35 156.43 84.08 156.14C83.81 155.84 83.39 155.69 82.81 155.69L80.86 155.69L80.86 159.61ZM90.4 155.55C89.21 155.55 88.62 155.96 88.62 156.79C88.62 157.22 88.76 157.53 89.04 157.71C89.32 157.89 89.94 158.12 90.89 158.38C91.85 158.65 92.52 158.97 92.92 159.33C93.31 159.7 93.5 160.28 93.5 161.08C93.5 162.09 93.22 162.84 92.64 163.34C92.07 163.84 91.29 164.09 90.3 164.09C89.51 164.09 88.63 163.99 87.67 163.81L87.16 163.71L87.32 162.46C88.58 162.63 89.54 162.72 90.2 162.72C91.36 162.72 91.94 162.2 91.94 161.18C91.94 160.77 91.81 160.48 91.54 160.29C91.28 160.1 90.7 159.89 89.78 159.66C88.87 159.43 88.18 159.11 87.74 158.71C87.29 158.31 87.06 157.68 87.06 156.81C87.06 155.94 87.35 155.28 87.91 154.84C88.48 154.4 89.26 154.18 90.26 154.18C90.98 154.18 91.82 154.26 92.8 154.43L93.29 154.51L93.17 155.77C91.86 155.62 90.94 155.55 90.4 155.55ZM98.88 156.12C98.88 155.48 99.12 154.97 99.6 154.6C100.08 154.22 100.75 154.04 101.6 154.04C102.45 154.04 103.1 154.22 103.56 154.6C104.01 154.98 104.24 155.5 104.24 156.17C104.24 156.84 104.09 157.36 103.79 157.75C103.5 158.13 102.97 158.54 102.21 158.98L103.92 160.67C103.99 160.49 104.05 160.19 104.12 159.75C104.18 159.32 104.22 158.96 104.24 158.67L105.71 158.7C105.58 159.84 105.35 160.79 105.03 161.57L106.69 163.09L105.82 164.09L104.24 162.72C103.93 163.14 103.52 163.48 103.01 163.72C102.5 163.97 101.93 164.09 101.32 164.09C100 164.09 99.07 163.84 98.52 163.35C97.97 162.85 97.69 162.12 97.69 161.15C97.69 160.37 97.85 159.77 98.18 159.35C98.51 158.92 99.03 158.58 99.76 158.31C99.4 157.89 99.16 157.53 99.05 157.24C98.94 156.95 98.88 156.58 98.88 156.12ZM101.15 162.73C101.6 162.73 102.01 162.65 102.38 162.5C102.75 162.34 103.03 162.13 103.21 161.86L100.56 159.22C100.09 159.39 99.76 159.62 99.55 159.9C99.34 160.18 99.23 160.55 99.23 161.02C99.23 162.16 99.87 162.73 101.15 162.73ZM100.42 156.43C100.42 156.89 100.63 157.34 101.05 157.79L101.36 158.11C101.85 157.83 102.2 157.57 102.4 157.33C102.6 157.08 102.7 156.77 102.7 156.39C102.7 155.68 102.32 155.32 101.56 155.32C100.8 155.32 100.42 155.69 100.42 156.43ZM28.99 183.82L31.36 174.23L34.45 174.23L36.83 183.82L35.26 183.82L34.75 181.77L31.06 181.77L30.55 183.82L28.99 183.82ZM32.56 175.54L31.37 180.39L34.44 180.39L33.26 175.54L32.56 175.54ZM39.76 180.41L39.76 183.82L38.2 183.82L38.2 174.23L41.84 174.23C44.01 174.23 45.09 175.25 45.09 177.29C45.09 178.65 44.57 179.57 43.52 180.06L45.11 183.82L43.4 183.82L42.01 180.41L39.76 180.41ZM43.5 177.3C43.5 176.15 42.95 175.58 41.84 175.58L39.76 175.58L39.76 179.06L41.87 179.06C42.43 179.06 42.84 178.9 43.1 178.58C43.37 178.26 43.5 177.83 43.5 177.3ZM50.08 183.98C48.68 183.98 47.73 183.59 47.23 182.82C46.73 182.04 46.48 180.77 46.48 178.99C46.48 177.22 46.73 175.96 47.23 175.21C47.74 174.46 48.69 174.08 50.08 174.08C50.91 174.08 51.82 174.2 52.82 174.43L52.76 175.69C51.92 175.54 51.08 175.47 50.24 175.47C49.4 175.47 48.84 175.72 48.54 176.21C48.24 176.71 48.09 177.65 48.09 179.03C48.09 180.41 48.23 181.34 48.52 181.84C48.81 182.34 49.38 182.59 50.22 182.59C51.06 182.59 51.91 182.52 52.76 182.38L52.81 183.67C51.85 183.87 50.94 183.98 50.08 183.98ZM60.17 183.82L60.17 179.68L56.03 179.68L56.03 183.82L54.47 183.82L54.47 174.23L56.03 174.23L56.03 178.32L60.17 178.32L60.17 174.23L61.74 174.23L61.74 183.82L60.17 183.82ZM63.94 183.82L63.94 174.23L65.49 174.23L65.49 183.82L63.94 183.82ZM66.78 175.62L66.78 174.23L73.78 174.23L73.78 175.62L71.08 175.62L71.08 183.82L69.51 183.82L69.51 175.62L66.78 175.62ZM75.07 183.82L75.07 174.23L81.11 174.23L81.11 175.59L76.62 175.59L76.62 178.31L80.27 178.31L80.27 179.65L76.62 179.65L76.62 182.45L81.11 182.45L81.11 183.82L75.07 183.82ZM86.03 183.98C84.63 183.98 83.68 183.59 83.18 182.82C82.68 182.04 82.43 180.77 82.43 178.99C82.43 177.22 82.68 175.96 83.19 175.21C83.69 174.46 84.64 174.08 86.03 174.08C86.86 174.08 87.77 174.2 88.77 174.43L88.72 175.69C87.88 175.54 87.04 175.47 86.2 175.47C85.36 175.47 84.79 175.72 84.49 176.21C84.19 176.71 84.04 177.65 84.04 179.03C84.04 180.41 84.19 181.34 84.47 181.84C84.76 182.34 85.33 182.59 86.17 182.59C87.01 182.59 87.86 182.52 88.72 182.38L88.76 183.67C87.8 183.87 86.89 183.98 86.03 183.98ZM89.5 175.62L89.5 174.23L96.5 174.23L96.5 175.62L93.8 175.62L93.8 183.82L92.23 183.82L92.23 175.62L89.5 175.62ZM99.27 180.76C99.27 182 99.93 182.62 101.23 182.62C102.54 182.62 103.19 182 103.19 180.76L103.19 174.23L104.76 174.23L104.76 180.73C104.76 181.86 104.46 182.68 103.87 183.2C103.28 183.72 102.4 183.98 101.23 183.98C100.05 183.98 99.17 183.72 98.59 183.2C98 182.68 97.7 181.86 97.7 180.73L97.7 174.23L99.27 174.23L99.27 180.76ZM108.44 180.41L108.44 183.82L106.89 183.82L106.89 174.23L110.53 174.23C112.69 174.23 113.78 175.25 113.78 177.29C113.78 178.65 113.25 179.57 112.21 180.06L113.79 183.82L112.08 183.82L110.7 180.41L108.44 180.41ZM112.18 177.3C112.18 176.15 111.63 175.58 110.53 175.58L108.44 175.58L108.44 179.06L110.56 179.06C111.12 179.06 111.53 178.9 111.79 178.58C112.05 178.26 112.18 177.83 112.18 177.3ZM115.54 183.82L115.54 174.23L121.59 174.23L121.59 175.59L117.09 175.59L117.09 178.31L120.75 178.31L120.75 179.65L117.09 179.65L117.09 182.45L121.59 182.45L121.59 183.82L115.54 183.82Z" />
				</g>
				<g id="Group-57">
					<path id="Rectangle" class="shp7" d="M134.96 4.69L147.75 4.69L147.75 13.86L134.96 13.86L134.96 4.69Z" />
					<path id="Rectangle" class="shp7" d="M16.79 7.57L29.58 7.57L29.58 16.75L16.79 16.75L16.79 7.57Z" />
					<path id="Icon-Path" class="shp8" d="M329.56 9.8L325.93 13.27C325.67 13.53 325.67 13.94 325.93 14.2C326.2 14.45 326.64 14.45 326.9 14.2L331.01 10.27C331.27 10.02 331.28 9.62 331.03 9.36L326.91 5.41C326.77 5.28 326.6 5.21 326.42 5.21C326.25 5.21 326.07 5.28 325.94 5.41C325.67 5.66 325.67 6.08 325.94 6.33L329.56 9.8Z" />
					<path id="Fill-1" fill-rule="evenodd" class="shp8" d="M328.21 19.89C327.62 19.89 327.06 19.66 326.64 19.24C326.22 18.82 325.99 18.27 325.99 17.67C325.99 17.08 326.22 16.51 326.64 16.09L332.91 9.8L326.65 3.51C326.23 3.1 326 2.54 326 1.94C325.99 1.35 326.23 0.79 326.65 0.36C327.06 -0.06 327.62 -0.29 328.22 -0.29C328.81 -0.29 329.37 -0.06 329.79 0.36L337.65 8.28C338.48 9.19 338.45 10.54 337.61 11.38L329.78 19.24C329.36 19.66 328.8 19.89 328.21 19.89Z" />
				</g>
				<g id="Group-57">
					<path id="Icon-Path" class="shp8" d="M133.59 11L130.19 14.78C129.94 15.06 129.94 15.51 130.19 15.79C130.44 16.07 130.85 16.07 131.1 15.79L134.96 11.51C135.2 11.24 135.2 10.8 134.97 10.52L131.1 6.21C130.98 6.07 130.81 6 130.65 6C130.48 6 130.32 6.07 130.19 6.21C129.94 6.49 129.94 6.94 130.19 7.22L133.59 11Z" />
					<path id="Fill-1" fill-rule="evenodd" class="shp8" d="M132.32 22C131.77 22 131.25 21.75 130.85 21.29C130.46 20.84 130.24 20.23 130.24 19.58C130.24 18.93 130.46 18.32 130.85 17.86L136.73 11L130.86 4.14C130.47 3.69 130.25 3.08 130.25 2.44C130.25 1.78 130.46 1.17 130.86 0.71C131.25 0.25 131.77 0 132.33 0C132.89 0 133.41 0.25 133.81 0.71L141.19 9.34C141.96 10.33 141.94 11.8 141.15 12.72L133.8 21.29C133.4 21.75 132.88 22 132.32 22Z" />
				</g>
				<g id="Group-57">
					<path id="Icon-Path" class="shp8" d="M441.59 11L438.19 14.78C437.94 15.06 437.94 15.51 438.19 15.79C438.44 16.07 438.85 16.07 439.1 15.79L442.96 11.51C443.2 11.24 443.2 10.8 442.97 10.52L439.1 6.21C438.98 6.07 438.81 6 438.65 6C438.48 6 438.32 6.07 438.19 6.21C437.94 6.49 437.94 6.94 438.19 7.22L441.59 11Z" />
					<path id="Fill-1" fill-rule="evenodd" class="shp8" d="M440.32 22C439.77 22 439.25 21.75 438.85 21.29C438.46 20.84 438.24 20.23 438.24 19.58C438.24 18.93 438.46 18.32 438.85 17.86L444.73 11L438.86 4.14C438.47 3.69 438.25 3.08 438.25 2.44C438.25 1.78 438.46 1.17 438.86 0.71C439.25 0.25 439.77 0 440.33 0C440.89 0 441.41 0.25 441.81 0.71L449.19 9.34C449.96 10.33 449.94 11.8 449.15 12.72L441.8 21.29C441.4 21.75 440.88 22 440.32 22Z" />
				</g>
				<g id="Group-57">
					<path id="Icon-Path" class="shp8" d="M423.41 314L426.81 310.22C427.06 309.94 427.06 309.49 426.81 309.21C426.56 308.93 426.15 308.93 425.9 309.21L422.04 313.49C421.8 313.76 421.8 314.2 422.03 314.48L425.9 318.79C426.02 318.93 426.19 319 426.35 319C426.52 319 426.68 318.93 426.81 318.79C427.06 318.51 427.06 318.06 426.81 317.78L423.41 314Z" />
					<path id="Fill-1" fill-rule="evenodd" class="shp8" d="M424.68 303C425.23 303 425.75 303.25 426.15 303.71C426.54 304.16 426.76 304.77 426.76 305.42C426.76 306.07 426.54 306.68 426.15 307.14L420.27 314L426.14 320.86C426.53 321.31 426.75 321.92 426.75 322.57C426.75 323.22 426.54 323.83 426.14 324.29C425.75 324.75 425.23 325 424.67 325C424.11 325 423.59 324.75 423.19 324.29L415.81 315.66C415.04 314.67 415.06 313.2 415.85 312.28L423.2 303.71C423.6 303.25 424.12 303 424.68 303Z" />
				</g>
				<g id="Group-57">
					<path id="Icon-Path" class="shp8" d="M332.41 314L335.81 310.22C336.06 309.94 336.06 309.49 335.81 309.21C335.56 308.93 335.15 308.93 334.9 309.21L331.04 313.49C330.8 313.76 330.8 314.2 331.03 314.48L334.9 318.79C335.02 318.93 335.19 319 335.35 319C335.52 319 335.68 318.93 335.81 318.79C336.06 318.51 336.06 318.06 335.81 317.78L332.41 314Z" />
					<path id="Fill-1" fill-rule="evenodd" class="shp8" d="M333.68 303C334.23 303 334.75 303.25 335.15 303.71C335.54 304.16 335.76 304.77 335.76 305.42C335.76 306.07 335.54 306.68 335.15 307.14L329.27 314L335.14 320.86C335.53 321.31 335.75 321.92 335.75 322.57C335.75 323.22 335.54 323.83 335.14 324.29C334.75 324.75 334.23 325 333.67 325C333.11 325 332.59 324.75 332.19 324.29L324.81 315.66C324.04 314.67 324.06 313.2 324.85 312.28L332.2 303.71C332.6 303.25 333.12 303 333.68 303Z" />
				</g>
				<g id="Group-57">
					<path id="Icon-Path" class="shp8" d="M146.41 314L149.81 310.22C150.06 309.94 150.06 309.49 149.81 309.21C149.56 308.93 149.15 308.93 148.9 309.21L145.04 313.49C144.8 313.76 144.8 314.2 145.03 314.48L148.9 318.79C149.02 318.93 149.19 319 149.35 319C149.52 319 149.68 318.93 149.81 318.79C150.06 318.51 150.06 318.06 149.81 317.78L146.41 314Z" />
					<path id="Fill-1" fill-rule="evenodd" class="shp8" d="M147.68 303C148.23 303 148.75 303.25 149.15 303.71C149.54 304.16 149.76 304.77 149.76 305.42C149.76 306.07 149.54 306.68 149.15 307.14L143.27 314L149.14 320.86C149.53 321.31 149.75 321.92 149.75 322.57C149.75 323.22 149.54 323.83 149.14 324.29C148.75 324.75 148.23 325 147.67 325C147.11 325 146.59 324.75 146.19 324.29L138.81 315.66C138.04 314.67 138.06 313.2 138.85 312.28L146.2 303.71C146.6 303.25 147.12 303 147.68 303Z" />
				</g>
				<g id="Group-57">
					<path id="Icon-Path" class="shp8" d="M66.41 314L69.81 310.22C70.06 309.94 70.06 309.49 69.81 309.21C69.56 308.93 69.15 308.93 68.9 309.21L65.04 313.49C64.8 313.76 64.8 314.2 65.03 314.48L68.9 318.79C69.02 318.93 69.19 319 69.35 319C69.52 319 69.68 318.93 69.81 318.79C70.06 318.51 70.06 318.06 69.81 317.78L66.41 314Z" />
					<path id="Fill-1" fill-rule="evenodd" class="shp8" d="M67.68 303C68.23 303 68.75 303.25 69.15 303.71C69.54 304.16 69.76 304.77 69.76 305.42C69.76 306.07 69.54 306.68 69.15 307.14L63.27 314L69.14 320.86C69.53 321.31 69.75 321.92 69.75 322.57C69.75 323.22 69.54 323.83 69.14 324.29C68.75 324.75 68.23 325 67.67 325C67.11 325 66.59 324.75 66.19 324.29L58.81 315.66C58.04 314.67 58.06 313.2 58.85 312.28L66.2 303.71C66.6 303.25 67.12 303 67.68 303Z" />
				</g>
				<g id="Group-57">
					<path id="Icon-Path" class="shp8" d="M9.5 241.61L12.94 245.3C13.19 245.57 13.6 245.57 13.86 245.3C14.11 245.02 14.11 244.58 13.86 244.31L9.96 240.13C9.71 239.87 9.32 239.86 9.07 240.11L5.14 244.31C5.02 244.44 4.95 244.62 4.95 244.8C4.95 244.98 5.02 245.16 5.14 245.29C5.4 245.57 5.81 245.57 6.06 245.29L9.5 241.61Z" />
					<path id="Fill-1" fill-rule="evenodd" class="shp8" d="M19.5 242.98C19.5 243.58 19.27 244.15 18.85 244.58C18.44 245 17.89 245.24 17.3 245.24C16.71 245.24 16.15 245 15.73 244.58L9.5 238.21L3.27 244.57C2.86 244.99 2.3 245.23 1.71 245.23C1.12 245.23 0.56 245 0.15 244.57C-0.27 244.15 -0.5 243.58 -0.5 242.97C-0.5 242.37 -0.27 241.8 0.15 241.38L7.99 233.38C8.89 232.54 10.23 232.57 11.07 233.42L18.85 241.38C19.27 241.81 19.5 242.38 19.5 242.98Z" />
				</g>
				<g id="Group-57">
					<path id="Icon-Path" class="shp8" d="M23.93 15.03L23.21 19.99C23.16 20.36 23.41 20.69 23.78 20.72C24.15 20.76 24.49 20.49 24.54 20.13L25.36 14.51C25.41 14.15 25.17 13.83 24.82 13.78L19.14 13.21C18.96 13.19 18.78 13.25 18.64 13.35C18.5 13.46 18.4 13.62 18.38 13.8C18.32 14.17 18.58 14.5 18.95 14.53L23.93 15.03Z" />
					<path id="Fill-1" fill-rule="evenodd" class="shp8" d="M29.07 23.81C28.61 24.17 28.03 24.33 27.44 24.26C26.86 24.19 26.33 23.89 25.96 23.43C25.6 22.96 25.43 22.37 25.5 21.78L26.57 12.98L17.77 11.87C17.19 11.8 16.66 11.51 16.3 11.04C15.93 10.57 15.76 9.99 15.84 9.39C15.9 8.81 16.2 8.28 16.67 7.92C17.14 7.55 17.72 7.39 18.31 7.46L29.36 8.86C30.58 9.06 31.39 10.14 31.24 11.32L29.91 22.33C29.84 22.92 29.54 23.44 29.07 23.81Z" />
				</g>
				<g id="Group-57">
					<path id="Icon-Path" class="shp8" d="M517 80.59L513.22 77.19C512.94 76.94 512.49 76.94 512.21 77.19C511.93 77.44 511.93 77.85 512.21 78.1L516.49 81.96C516.76 82.2 517.2 82.2 517.48 81.97L521.79 78.1C521.93 77.98 522 77.81 522 77.65C522 77.48 521.93 77.32 521.79 77.19C521.51 76.94 521.06 76.94 520.78 77.19L517 80.59Z" />
					<path id="Fill-1" fill-rule="evenodd" class="shp8" d="M506 79.32C506 78.77 506.25 78.25 506.71 77.85C507.16 77.46 507.77 77.24 508.42 77.24C509.07 77.24 509.68 77.46 510.14 77.85L517 83.73L523.86 77.86C524.31 77.47 524.92 77.25 525.57 77.25C526.22 77.25 526.83 77.46 527.29 77.86C527.75 78.25 528 78.77 528 79.33C528 79.89 527.75 80.41 527.29 80.81L518.66 88.19C517.67 88.96 516.2 88.94 515.28 88.15L506.71 80.8C506.25 80.4 506 79.88 506 79.32Z" />
				</g>
				<g id="Group-57">
					<path id="Icon-Path" class="shp8" d="M516.06 279.92L513.28 275.75C513.07 275.44 512.66 275.37 512.37 275.59C512.07 275.81 512 276.23 512.2 276.54L515.35 281.27C515.55 281.56 515.94 281.64 516.24 281.44L520.85 278.07C521 277.96 521.09 277.8 521.12 277.63C521.15 277.45 521.12 277.27 521.01 277.12C520.81 276.81 520.4 276.73 520.1 276.95L516.06 279.92Z" />
					<path id="Fill-1" fill-rule="evenodd" class="shp8" d="M506.37 276.84C506.47 276.26 506.8 275.75 507.29 275.41C507.76 275.07 508.35 274.94 508.94 275.04C509.53 275.14 510.04 275.47 510.38 275.96L515.48 283.21L522.76 278.14C523.24 277.8 523.82 277.67 524.41 277.77C525 277.88 525.51 278.2 525.85 278.69C526.19 279.17 526.32 279.76 526.22 280.35C526.12 280.93 525.79 281.44 525.31 281.78L516.16 288.14C515.12 288.8 513.8 288.54 513.11 287.57L506.74 278.5C506.4 278.01 506.27 277.42 506.37 276.84Z" />
				</g>
			</g>
		</g>
		<path id="LEANPRODUCTDESIGN" fill-rule="evenodd" class="shp3" d="M406.36 163.81L401 163.81L401 154.16L402.55 154.16L402.55 162.42L406.36 162.42L406.36 163.81ZM407.63 163.81L407.63 154.16L413.65 154.16L413.65 155.52L409.17 155.52L409.17 158.26L412.82 158.26L412.82 159.61L409.17 159.61L409.17 162.43L413.65 162.43L413.65 163.81L407.63 163.81ZM414.52 163.81L416.87 154.16L419.96 154.16L422.33 163.81L420.77 163.81L420.25 161.74L416.58 161.74L416.07 163.81L414.52 163.81ZM418.07 155.47L416.89 160.36L419.94 160.36L418.77 155.47L418.07 155.47ZM423.7 163.81L423.7 154.16L426.4 154.16L429.3 162.43L429.51 162.43L429.51 154.16L431.06 154.16L431.06 163.81L428.41 163.81L425.44 155.52L425.24 155.52L425.24 163.81L423.7 163.81ZM439.83 160.81L437.88 160.81L437.88 163.81L436.33 163.81L436.33 154.16L439.83 154.16C442 154.16 443.09 155.24 443.09 157.4C443.09 158.51 442.81 159.35 442.27 159.94C441.72 160.52 440.91 160.81 439.83 160.81ZM437.88 159.46L439.82 159.46C440.94 159.46 441.49 158.77 441.49 157.4C441.49 156.74 441.36 156.26 441.09 155.96C440.82 155.66 440.4 155.51 439.82 155.51L437.88 155.51L437.88 159.46ZM446.13 160.37L446.13 163.81L444.58 163.81L444.58 154.16L448.2 154.16C450.36 154.16 451.44 155.18 451.44 157.23C451.44 158.6 450.92 159.53 449.88 160.02L451.45 163.81L449.75 163.81L448.37 160.37L446.13 160.37ZM449.85 157.24C449.85 156.09 449.3 155.51 448.2 155.51L446.13 155.51L446.13 159.02L448.23 159.02C448.79 159.02 449.2 158.86 449.46 158.53C449.72 158.21 449.85 157.78 449.85 157.24ZM459.68 162.78C459.12 163.57 458.11 163.97 456.67 163.97C455.23 163.97 454.22 163.57 453.64 162.78C453.07 161.98 452.78 160.73 452.78 159.03C452.78 157.33 453.07 156.07 453.65 155.24C454.23 154.41 455.24 154 456.67 154C458.1 154 459.11 154.41 459.68 155.23C460.26 156.06 460.55 157.32 460.55 159.03C460.55 160.74 460.26 161.99 459.68 162.78ZM454.86 161.77C455.17 162.32 455.78 162.6 456.67 162.6C457.56 162.6 458.17 162.33 458.48 161.78C458.79 161.24 458.95 160.32 458.95 159.04C458.95 157.76 458.78 156.82 458.46 156.24C458.14 155.66 457.55 155.37 456.67 155.37C455.8 155.37 455.2 155.66 454.87 156.24C454.55 156.82 454.38 157.75 454.38 159.03C454.38 160.3 454.54 161.21 454.86 161.77ZM465.66 163.81L462.35 163.81L462.35 154.16L465.66 154.16C467.12 154.16 468.13 154.53 468.67 155.28C469.21 156.04 469.48 157.21 469.48 158.82C469.48 159.64 469.42 160.33 469.32 160.9C469.21 161.47 469.02 161.99 468.75 162.45C468.22 163.36 467.19 163.81 465.66 163.81ZM467.87 158.82C467.87 157.66 467.73 156.82 467.44 156.3C467.15 155.78 466.56 155.52 465.66 155.52L463.9 155.52L463.9 162.43L465.66 162.43C466.58 162.43 467.19 162.09 467.5 161.4C467.65 161.05 467.75 160.68 467.8 160.29C467.85 159.89 467.87 159.4 467.87 158.82ZM472.77 160.73C472.77 161.98 473.42 162.6 474.72 162.6C476.02 162.6 476.67 161.98 476.67 160.73L476.67 154.16L478.24 154.16L478.24 160.7C478.24 161.83 477.94 162.66 477.35 163.19C476.76 163.71 475.88 163.97 474.72 163.97C473.55 163.97 472.67 163.71 472.09 163.19C471.5 162.66 471.21 161.83 471.21 160.7L471.21 154.16L472.77 154.16L472.77 160.73ZM483.57 163.97C482.17 163.97 481.22 163.58 480.73 162.8C480.23 162.02 479.98 160.73 479.98 158.95C479.98 157.16 480.23 155.89 480.73 155.14C481.24 154.38 482.18 154 483.57 154C484.39 154 485.3 154.12 486.3 154.35L486.24 155.62C485.41 155.47 484.57 155.4 483.73 155.4C482.9 155.4 482.33 155.65 482.03 156.15C481.73 156.65 481.59 157.6 481.59 158.98C481.59 160.37 481.73 161.32 482.02 161.82C482.31 162.32 482.87 162.57 483.71 162.57C484.54 162.57 485.39 162.5 486.24 162.36L486.29 163.66C485.33 163.87 484.42 163.97 483.57 163.97ZM487.03 155.55L487.03 154.16L494 154.16L494 155.55L491.31 155.55L491.31 163.81L489.75 163.81L489.75 155.55L487.03 155.55ZM428.4 183.84L425.09 183.84L425.09 174.19L428.4 174.19C429.87 174.19 430.87 174.56 431.41 175.31C431.95 176.07 432.22 177.25 432.22 178.85C432.22 179.67 432.17 180.36 432.06 180.93C431.95 181.5 431.76 182.02 431.49 182.48C430.96 183.39 429.93 183.84 428.4 183.84ZM430.61 178.85C430.61 177.69 430.47 176.85 430.18 176.33C429.89 175.81 429.3 175.55 428.4 175.55L426.64 175.55L426.64 182.46L428.4 182.46C429.32 182.46 429.93 182.12 430.24 181.43C430.39 181.09 430.49 180.71 430.54 180.32C430.59 179.93 430.61 179.44 430.61 178.85ZM434.03 183.84L434.03 174.19L440.06 174.19L440.06 175.55L435.58 175.55L435.58 178.29L439.22 178.29L439.22 179.64L435.58 179.64L435.58 182.46L440.06 182.46L440.06 183.84L434.03 183.84ZM444.55 175.4C443.37 175.4 442.78 175.82 442.78 176.65C442.78 177.09 442.92 177.39 443.2 177.58C443.48 177.76 444.09 177.99 445.04 178.25C446 178.52 446.67 178.84 447.06 179.21C447.45 179.58 447.65 180.17 447.65 180.97C447.65 181.98 447.36 182.74 446.79 183.25C446.22 183.75 445.44 184 444.45 184C443.66 184 442.79 183.91 441.83 183.72L441.33 183.62L441.48 182.36L442.14 182.45C443.07 182.56 443.81 182.62 444.35 182.62C445.51 182.62 446.08 182.1 446.08 181.07C446.08 180.66 445.95 180.36 445.69 180.17C445.48 180.01 445.03 179.84 444.36 179.65L443.94 179.54C443.02 179.31 442.35 178.99 441.9 178.59C441.45 178.18 441.23 177.54 441.23 176.67C441.23 175.79 441.51 175.13 442.07 174.69C442.64 174.24 443.42 174.02 444.41 174.02C445.13 174.02 445.97 174.1 446.95 174.27L447.44 174.36L447.31 175.62L446.47 175.53C445.61 175.44 444.96 175.4 444.55 175.4ZM449.32 183.84L449.32 174.19L450.87 174.19L450.87 183.84L449.32 183.84ZM456.96 180.15L456.96 178.77L459.68 178.77L459.68 183.68C459.51 183.72 459.21 183.77 458.78 183.82L458.16 183.89C457.39 183.96 456.83 184 456.49 184C455.04 184 454.04 183.6 453.49 182.79C452.94 181.98 452.67 180.71 452.67 178.99C452.67 177.26 452.95 176.01 453.51 175.22C454.07 174.43 455.05 174.03 456.43 174.03C457.25 174.03 458.17 174.13 459.2 174.31L459.68 174.41L459.63 175.65C458.5 175.5 457.49 175.43 456.6 175.43C455.71 175.43 455.1 175.68 454.77 176.19C454.44 176.7 454.27 177.64 454.27 179.01C454.27 180.38 454.43 181.33 454.74 181.85C455.05 182.37 455.68 182.63 456.63 182.63C457.31 182.63 457.82 182.59 458.15 182.51L458.15 180.15L456.96 180.15ZM461.62 183.84L461.62 174.19L464.33 174.19L467.23 182.46L467.44 182.46L467.44 174.19L468.99 174.19L468.99 183.84L466.34 183.84L463.37 175.55L463.17 175.55L463.17 183.84L461.62 183.84Z" />
	</g>
</svg>