<?xml version="1.0" encoding="UTF-8"?>
<svg width="702px" height="149px" viewBox="0 0 702 149" version="1.1" xmlns="http://www.w3.org/2000/svg" xmlns:xlink="http://www.w3.org/1999/xlink">
    <!-- Generator: Sketch 58 (84663) - https://sketch.com -->
    <title>gráfico_valores</title>
    <desc>Created with Sketch.</desc>
    <g id="Kairos-Web-V2-XL" stroke="none" stroke-width="1" fill="none" fill-rule="evenodd">
        <g id="gráfico_valores">
            <g id="Group-3">
                <g id="Group-2">
                    <g id="Group" fill="#FF8300">
                        <path d="M74.5932203,0 C115.789918,0 149.186441,33.3547861 149.186441,74.5 C149.186441,115.645214 115.789918,149 74.5932203,149 C33.3965223,149 0,115.645214 0,74.5 C0,33.3547861 33.3965223,0 74.5932203,0 Z M75.0508475,11.8834356 C40.1726614,11.8834356 11.8983051,40.122457 11.8983051,74.9570552 C11.8983051,109.791653 40.1726614,138.030675 75.0508475,138.030675 C109.929034,138.030675 138.20339,109.791653 138.20339,74.9570552 C138.20339,40.122457 109.929034,11.8834356 75.0508475,11.8834356 Z" id="Combined-Shape"></path>
                    </g>
                    <g id="Group" transform="translate(138.203390, 0.000000)" fill="#FF8300" fill-opacity="0.7">
                        <path d="M74.5932203,0 C115.789918,0 149.186441,33.3547861 149.186441,74.5 C149.186441,115.645214 115.789918,149 74.5932203,149 C33.3965223,149 0,115.645214 0,74.5 C0,33.3547861 33.3965223,0 74.5932203,0 Z M75.0508475,11.8834356 C40.1726614,11.8834356 11.8983051,40.122457 11.8983051,74.9570552 C11.8983051,109.791653 40.1726614,138.030675 75.0508475,138.030675 C109.929034,138.030675 138.20339,109.791653 138.20339,74.9570552 C138.20339,40.122457 109.929034,11.8834356 75.0508475,11.8834356 Z" id="Combined-Shape"></path>
                    </g>
                    <g id="Group" transform="translate(276.406780, 0.000000)" fill="#FF8300">
                        <path d="M74.5932203,0 C115.789918,0 149.186441,33.3547861 149.186441,74.5 C149.186441,115.645214 115.789918,149 74.5932203,149 C33.3965223,149 0,115.645214 0,74.5 C0,33.3547861 33.3965223,0 74.5932203,0 Z M75.0508475,11.8834356 C40.1726614,11.8834356 11.8983051,40.122457 11.8983051,74.9570552 C11.8983051,109.791653 40.1726614,138.030675 75.0508475,138.030675 C109.929034,138.030675 138.20339,109.791653 138.20339,74.9570552 C138.20339,40.122457 109.929034,11.8834356 75.0508475,11.8834356 Z" id="Combined-Shape"></path>
                    </g>
                    <g id="Group" transform="translate(414.610169, 0.000000)" fill="#FF8300" fill-opacity="0.7">
                        <path d="M74.5932203,0 C115.789918,0 149.186441,33.3547861 149.186441,74.5 C149.186441,115.645214 115.789918,149 74.5932203,149 C33.3965223,149 0,115.645214 0,74.5 C0,33.3547861 33.3965223,0 74.5932203,0 Z M75.0508475,11.8834356 C40.1726614,11.8834356 11.8983051,40.122457 11.8983051,74.9570552 C11.8983051,109.791653 40.1726614,138.030675 75.0508475,138.030675 C109.929034,138.030675 138.20339,109.791653 138.20339,74.9570552 C138.20339,40.122457 109.929034,11.8834356 75.0508475,11.8834356 Z" id="Combined-Shape"></path>
                    </g>
                    <g id="Group" transform="translate(28.491525, 0.000000)">
                        <path d="M598.915254,0 C640.111952,0 673.508475,33.3547861 673.508475,74.5 C673.508475,115.645214 640.111952,149 598.915254,149 C557.718556,149 524.322034,115.645214 524.322034,74.5 C524.322034,33.3547861 557.718556,0 598.915254,0 Z M599.372881,11.8834356 C564.494695,11.8834356 536.220339,40.122457 536.220339,74.9570552 C536.220339,109.791653 564.494695,138.030675 599.372881,138.030675 C634.251067,138.030675 662.525424,109.791653 662.525424,74.9570552 C662.525424,40.122457 634.251067,11.8834356 599.372881,11.8834356 Z" id="Combined-Shape" fill="#FF8300"></path>
                        <path d="M6.5350678,72.6847236 L6.5350678,68.5407236 L2.3910678,68.5407236 L2.3910678,72.6847236 L0.837067797,72.6847236 L0.837067797,63.0947236 L2.3910678,63.0947236 L2.3910678,67.1827236 L6.5350678,67.1827236 L6.5350678,63.0947236 L8.1030678,63.0947236 L8.1030678,72.6847236 L6.5350678,72.6847236 Z M11.9670678,70.6547236 C12.2844027,71.205393 12.8910633,71.4807236 13.7870678,71.4807236 C14.6830723,71.4807236 15.2873996,71.2100596 15.6000678,70.6687236 C15.912736,70.1273875 16.0690678,69.21973 16.0690678,67.9457236 C16.0690678,66.6717172 15.9080694,65.7453931 15.5860678,65.1667236 C15.2640662,64.588054 14.6644055,64.2987236 13.7870678,64.2987236 C12.9097301,64.2987236 12.3077361,64.588054 11.9810678,65.1667236 C11.6543995,65.7453931 11.4910678,66.6670506 11.4910678,67.9317236 C11.4910678,69.1963966 11.6497329,70.1040542 11.9670678,70.6547236 Z M16.8110678,71.6627236 C16.2417316,72.4467275 15.2337417,72.8387236 13.7870678,72.8387236 C12.3403939,72.8387236 11.3277374,72.4443942 10.7490678,71.6557236 C10.1703982,70.867053 9.8810678,69.6280654 9.8810678,67.9387236 C9.8810678,66.2493818 10.1727315,64.994061 10.7560678,64.1727236 C11.339404,63.3513861 12.3497273,62.9407236 13.7870678,62.9407236 C15.2244083,62.9407236 16.2323982,63.3490528 16.8110678,64.1657236 C17.3897374,64.9823943 17.6790678,66.2400484 17.6790678,67.9387236 C17.6790678,69.6373987 17.3897374,70.8787197 16.8110678,71.6627236 Z M19.4850678,72.6847236 L19.4850678,63.0947236 L22.2010678,63.0947236 L25.1130678,71.3127236 L25.3230678,71.3127236 L25.3230678,63.0947236 L26.8770678,63.0947236 L26.8770678,72.6847236 L24.2170678,72.6847236 L21.2350678,64.4527236 L21.0390678,64.4527236 L21.0390678,72.6847236 L19.4850678,72.6847236 Z M29.0890678,72.6847236 L29.0890678,63.0947236 L35.1370678,63.0947236 L35.1370678,64.4527236 L30.6430678,64.4527236 L30.6430678,67.1687236 L34.2970678,67.1687236 L34.2970678,68.5127236 L30.6430678,68.5127236 L30.6430678,71.3127236 L35.1370678,71.3127236 L35.1370678,72.6847236 L29.0890678,72.6847236 Z M39.6450678,64.2987236 C38.4597285,64.2987236 37.8670678,64.7140528 37.8670678,65.5447236 C37.8670678,65.9740591 38.0070664,66.2797227 38.2870678,66.4617236 C38.5670692,66.6437245 39.1853963,66.8677223 40.1420678,67.1337236 C41.0987392,67.3997249 41.7730658,67.7170551 42.1650678,68.0857236 C42.5570698,68.4543921 42.7530678,69.0353863 42.7530678,69.8287236 C42.7530678,70.8367286 42.4660707,71.5903878 41.8920678,72.0897236 C41.3180649,72.5890594 40.5364061,72.8387236 39.5470678,72.8387236 C38.7537305,72.8387236 37.8764059,72.7453912 36.9150678,72.5587236 L36.4110678,72.4607236 L36.5650678,71.2147236 L37.2227227,71.2980297 C38.1647735,71.4104927 38.9068833,71.4667236 39.4490678,71.4667236 C40.6064069,71.4667236 41.1850678,70.9533954 41.1850678,69.9267236 C41.1850678,69.5253882 41.0544024,69.2290579 40.7930678,69.0377236 C40.5752889,68.8782783 40.1306632,68.7058723 39.4591804,68.5205017 L39.0290678,68.4077236 C38.1143966,68.1790558 37.43307,67.8640589 36.9850678,67.4627236 C36.5370656,67.0613882 36.3130678,66.4267236 36.3130678,65.5587236 C36.3130678,64.6907192 36.5953983,64.0350591 37.1600678,63.5917236 C37.7247373,63.148388 38.5063961,62.9267236 39.5050678,62.9267236 C40.2237381,62.9267236 41.0730629,63.0107227 42.0530678,63.1787236 L42.5430678,63.2627236 L42.4170678,64.5227236 L41.5735862,64.4312677 C40.7043154,64.3429046 40.0614801,64.2987236 39.6450678,64.2987236 Z M43.5090678,64.4807236 L43.5090678,63.0947236 L50.5090678,63.0947236 L50.5090678,64.4807236 L47.8070678,64.4807236 L47.8070678,72.6847236 L46.2390678,72.6847236 L46.2390678,64.4807236 L43.5090678,64.4807236 Z M51.7970678,72.6847236 L51.7970678,63.0947236 L53.3510678,63.0947236 L53.3510678,72.6847236 L51.7970678,72.6847236 Z M58.8810678,72.6847236 L55.5630678,72.6847236 L55.5630678,63.0947236 L58.8810678,63.0947236 C60.3557418,63.0947236 61.3637318,63.4680532 61.9050678,64.2147236 C62.4464038,64.961394 62.7170678,66.1327156 62.7170678,67.7287236 C62.7170678,68.5407276 62.6634017,69.2290541 62.5560678,69.7937236 C62.4487339,70.3583931 62.2597358,70.869388 61.9890678,71.3267236 C61.4570651,72.2320614 60.4210755,72.6847236 58.8810678,72.6847236 Z M61.1070678,67.7287236 C61.1070678,66.5713845 60.9624026,65.7360595 60.6730678,65.2227236 C60.383733,64.7093877 59.7864057,64.4527236 58.8810678,64.4527236 L57.1170678,64.4527236 L57.1170678,71.3127236 L58.8810678,71.3127236 C59.8050724,71.3127236 60.4210663,70.9720603 60.7290678,70.2907236 C60.8784019,69.9453885 60.9787342,69.5767255 61.0300678,69.1847236 C61.0814014,68.7927216 61.1070678,68.3073931 61.1070678,67.7287236 Z M63.7110678,72.6847236 L66.0770678,63.0947236 L69.1710678,63.0947236 L71.5510678,72.6847236 L69.9830678,72.6847236 L69.4650678,70.6267236 L65.7830678,70.6267236 L65.2650678,72.6847236 L63.7110678,72.6847236 Z M67.2810678,64.3967236 L66.0910678,69.2547236 L69.1570678,69.2547236 L67.9810678,64.3967236 L67.2810678,64.3967236 Z M76.2410678,72.6847236 L72.9230678,72.6847236 L72.9230678,63.0947236 L76.2410678,63.0947236 C77.7157418,63.0947236 78.7237318,63.4680532 79.2650678,64.2147236 C79.8064038,64.961394 80.0770678,66.1327156 80.0770678,67.7287236 C80.0770678,68.5407276 80.0234017,69.2290541 79.9160678,69.7937236 C79.8087339,70.3583931 79.6197358,70.869388 79.3490678,71.3267236 C78.8170651,72.2320614 77.7810755,72.6847236 76.2410678,72.6847236 Z M78.4670678,67.7287236 C78.4670678,66.5713845 78.3224026,65.7360595 78.0330678,65.2227236 C77.743733,64.7093877 77.1464057,64.4527236 76.2410678,64.4527236 L74.4770678,64.4527236 L74.4770678,71.3127236 L76.2410678,71.3127236 C77.1650724,71.3127236 77.7810663,70.9720603 78.0890678,70.2907236 C78.2384019,69.9453885 78.3387342,69.5767255 78.3900678,69.1847236 C78.4414014,68.7927216 78.4670678,68.3073931 78.4670678,67.7287236 Z M88.5050678,72.6847236 L86.9370678,72.6847236 L86.9370678,68.7367236 L83.9270678,63.0947236 L85.6770678,63.0947236 L87.7070678,67.2107236 L89.7510678,63.0947236 L91.4870678,63.0947236 L88.5050678,68.7367236 L88.5050678,72.6847236 Z M14.2560678,92.7287232 C12.8560608,92.7287232 11.9064036,92.3413938 11.4070678,91.5667232 C10.907732,90.7920527 10.6580678,89.5180654 10.6580678,87.7447232 C10.6580678,85.971381 10.9100653,84.7090603 11.4140678,83.9577232 C11.9180703,83.2063861 12.8653942,82.8307232 14.2560678,82.8307232 C15.0867386,82.8307232 16.0013961,82.9473887 17.0000678,83.1807232 L16.9440678,84.4407232 C16.1040636,84.2913891 15.264072,84.2167232 14.4240678,84.2167232 C13.5840636,84.2167232 13.014736,84.4663874 12.7160678,84.9657232 C12.4173996,85.465059 12.2680678,86.4030497 12.2680678,87.7797232 C12.2680678,89.1563968 12.412733,90.0943874 12.7020678,90.5937232 C12.9914026,91.093059 13.5560636,91.3427232 14.3960678,91.3427232 C15.236072,91.3427232 16.0853968,91.2727239 16.9440678,91.1327232 L16.9860678,92.4207232 C16.0247297,92.6260576 15.1147388,92.7287232 14.2560678,92.7287232 Z M20.3180678,90.5447232 C20.6354027,91.0953926 21.2420633,91.3707232 22.1380678,91.3707232 C23.0340723,91.3707232 23.6383996,91.1000593 23.9510678,90.5587232 C24.263736,90.0173872 24.4200678,89.1097296 24.4200678,87.8357232 C24.4200678,86.5617168 24.2590694,85.6353928 23.9370678,85.0567232 C23.6150662,84.4780537 23.0154055,84.1887232 22.1380678,84.1887232 C21.2607301,84.1887232 20.6587361,84.4780537 20.3320678,85.0567232 C20.0053995,85.6353928 19.8420678,86.5570502 19.8420678,87.8217232 C19.8420678,89.0863962 20.0007329,89.9940538 20.3180678,90.5447232 Z M25.1620678,91.5527232 C24.5927316,92.3367271 23.5847417,92.7287232 22.1380678,92.7287232 C20.6913939,92.7287232 19.6787374,92.3343938 19.1000678,91.5457232 C18.5213982,90.7570526 18.2320678,89.518065 18.2320678,87.8287232 C18.2320678,86.1393814 18.5237315,84.8840607 19.1070678,84.0627232 C19.690404,83.2413858 20.7007273,82.8307232 22.1380678,82.8307232 C23.5754083,82.8307232 24.5833982,83.2390525 25.1620678,84.0557232 C25.7407374,84.872394 26.0300678,86.1300481 26.0300678,87.8287232 C26.0300678,89.5273984 25.7407374,90.7687193 25.1620678,91.5527232 Z M27.8360678,92.5747232 L27.8360678,82.9847232 L30.5520678,82.9847232 L33.4640678,91.2027232 L33.6740678,91.2027232 L33.6740678,82.9847232 L35.2280678,82.9847232 L35.2280678,92.5747232 L32.5680678,92.5747232 L29.5860678,84.3427232 L29.3900678,84.3427232 L29.3900678,92.5747232 L27.8360678,92.5747232 Z M37.4400678,92.5747232 L37.4400678,82.9847232 L43.3900678,82.9847232 L43.3900678,84.3427232 L38.9940678,84.3427232 L38.9940678,87.5767232 L42.6480678,87.5767232 L42.6480678,88.9347232 L38.9940678,88.9347232 L38.9940678,92.5747232 L37.4400678,92.5747232 Z M44.8460678,92.5747232 L44.8460678,82.9847232 L46.4000678,82.9847232 L46.4000678,92.5747232 L44.8460678,92.5747232 Z M47.7860678,92.5747232 L50.1520678,82.9847232 L53.2460678,82.9847232 L55.6260678,92.5747232 L54.0580678,92.5747232 L53.5400678,90.5167232 L49.8580678,90.5167232 L49.3400678,92.5747232 L47.7860678,92.5747232 Z M51.3560678,84.2867232 L50.1660678,89.1447232 L53.2320678,89.1447232 L52.0560678,84.2867232 L51.3560678,84.2867232 Z M56.9980678,92.5747232 L56.9980678,82.9847232 L59.7140678,82.9847232 L62.6260678,91.2027232 L62.8360678,91.2027232 L62.8360678,82.9847232 L64.3900678,82.9847232 L64.3900678,92.5747232 L61.7300678,92.5747232 L58.7480678,84.3427232 L58.5520678,84.3427232 L58.5520678,92.5747232 L56.9980678,92.5747232 Z M72.3840678,82.9847232 L72.3840678,84.4827232 L67.9320678,90.9507232 L67.9320678,91.2167232 L72.3840678,91.2167232 L72.3840678,92.5747232 L66.0840678,92.5747232 L66.0840678,91.0907232 L70.5220678,84.6227232 L70.5220678,84.3427232 L66.0840678,84.3427232 L66.0840678,82.9847232 L72.3840678,82.9847232 Z M78.7120678,82.9847232 L81.0920678,92.5747232 L79.5240678,92.5747232 L79.0060678,90.5167232 L75.3240678,90.5167232 L74.8060678,92.5747232 L73.2520678,92.5747232 L75.6180678,82.9847232 L78.7120678,82.9847232 Z M77.5220678,84.2867232 L76.8220678,84.2867232 L75.6320678,89.1447232 L78.6980678,89.1447232 L77.5220678,84.2867232 Z" id="HONESTIDADYCONFIANZA" fill-opacity="0.9" fill="#4D4D4E" fill-rule="nonzero"></path>
                        <path d="M156.832712,72.6847236 L156.832712,63.0947236 L162.880712,63.0947236 L162.880712,64.4527236 L158.386712,64.4527236 L158.386712,67.1687236 L162.040712,67.1687236 L162.040712,68.5127236 L158.386712,68.5127236 L158.386712,71.3127236 L162.880712,71.3127236 L162.880712,72.6847236 L156.832712,72.6847236 Z M164.574712,72.6847236 L164.574712,63.0947236 L167.290712,63.0947236 L170.202712,71.3127236 L170.412712,71.3127236 L170.412712,63.0947236 L171.966712,63.0947236 L171.966712,72.6847236 L169.306712,72.6847236 L166.324712,64.4527236 L166.128712,64.4527236 L166.128712,72.6847236 L164.574712,72.6847236 Z M173.254712,64.4807236 L173.254712,63.0947236 L180.254712,63.0947236 L180.254712,64.4807236 L177.552712,64.4807236 L177.552712,72.6847236 L175.984712,72.6847236 L175.984712,64.4807236 L173.254712,64.4807236 Z M183.096712,69.2687236 L183.096712,72.6847236 L181.542712,72.6847236 L181.542712,63.0947236 L185.182712,63.0947236 C187.348056,63.0947236 188.430712,64.1120467 188.430712,66.1467236 C188.430712,67.5093971 187.90805,68.4333878 186.862712,68.9187236 L188.444712,72.6847236 L186.736712,72.6847236 L185.350712,69.2687236 L183.096712,69.2687236 Z M186.834712,66.1607236 C186.834712,65.0127178 186.284051,64.4387236 185.182712,64.4387236 L183.096712,64.4387236 L183.096712,67.9247236 L185.210712,67.9247236 C185.770715,67.9247236 186.181377,67.7637252 186.442712,67.4417236 C186.704047,67.119722 186.834712,66.6927262 186.834712,66.1607236 Z M190.194712,72.6847236 L190.194712,63.0947236 L196.242712,63.0947236 L196.242712,64.4527236 L191.748712,64.4527236 L191.748712,67.1687236 L195.402712,67.1687236 L195.402712,68.5127236 L191.748712,68.5127236 L191.748712,71.3127236 L196.242712,71.3127236 L196.242712,72.6847236 L190.194712,72.6847236 Z M201.842712,69.0167236 L201.842712,67.6447236 L204.572712,67.6447236 L204.572712,72.5167236 C204.371111,72.5689905 204.003754,72.6242435 203.470633,72.6824835 L203.039712,72.7267236 C202.269708,72.8013906 201.712047,72.8387236 201.366712,72.8387236 C199.910705,72.8387236 198.907381,72.4373943 198.356712,71.6347236 C197.806042,70.8320529 197.530712,69.5743988 197.530712,67.8617236 C197.530712,66.1490484 197.813042,64.9007275 198.377712,64.1167236 C198.942381,63.3327197 199.920038,62.9407236 201.310712,62.9407236 C202.132049,62.9407236 203.05604,63.034056 204.082712,63.2207236 L204.572712,63.3187236 L204.516712,64.5507236 C203.387373,64.4013895 202.374716,64.3267236 201.478712,64.3267236 C200.582707,64.3267236 199.969047,64.5787211 199.637712,65.0827236 C199.306377,65.5867261 199.140712,66.5200501 199.140712,67.8827236 C199.140712,69.2453971 199.297044,70.185721 199.609712,70.7037236 C199.92238,71.2217262 200.554707,71.4807236 201.506712,71.4807236 C202.188049,71.4807236 202.69671,71.438724 203.032712,71.3547236 L203.032712,69.0167236 L201.842712,69.0167236 Z M205.692712,72.6847236 L208.058712,63.0947236 L211.152712,63.0947236 L213.532712,72.6847236 L211.964712,72.6847236 L211.446712,70.6267236 L207.764712,70.6267236 L207.246712,72.6847236 L205.692712,72.6847236 Z M209.262712,64.3967236 L208.072712,69.2547236 L211.138712,69.2547236 L209.962712,64.3967236 L209.262712,64.3967236 Z M158.694712,92.5747232 L155.376712,92.5747232 L155.376712,82.9847232 L158.694712,82.9847232 C160.169386,82.9847232 161.177376,83.3580528 161.718712,84.1047232 C162.260048,84.8513936 162.530712,86.0227152 162.530712,87.6187232 C162.530712,88.4307273 162.477046,89.1190537 162.369712,89.6837232 C162.262378,90.2483927 162.07338,90.7593876 161.802712,91.2167232 C161.270709,92.1220611 160.23472,92.5747232 158.694712,92.5747232 Z M160.920712,87.6187232 C160.920712,86.4613841 160.776047,85.6260591 160.486712,85.1127232 C160.197377,84.5993873 159.60005,84.3427232 158.694712,84.3427232 L156.930712,84.3427232 L156.930712,91.2027232 L158.694712,91.2027232 C159.618716,91.2027232 160.23471,90.86206 160.542712,90.1807232 C160.692046,89.8353882 160.792378,89.4667252 160.843712,89.0747232 C160.895045,88.6827213 160.920712,88.1973928 160.920712,87.6187232 Z M164.350712,92.5747232 L164.350712,82.9847232 L170.398712,82.9847232 L170.398712,84.3427232 L165.904712,84.3427232 L165.904712,87.0587232 L169.558712,87.0587232 L169.558712,88.4027232 L165.904712,88.4027232 L165.904712,91.2027232 L170.398712,91.2027232 L170.398712,92.5747232 L164.350712,92.5747232 Z M180.478712,82.9847232 L182.102712,82.9847232 L179.750712,92.5747232 L176.698712,92.5747232 L174.346712,82.9847232 L175.970712,82.9847232 L177.874712,91.2027232 L178.574712,91.2027232 L180.478712,82.9847232 Z M182.662712,92.5747232 L185.028712,82.9847232 L188.122712,82.9847232 L190.502712,92.5747232 L188.934712,92.5747232 L188.416712,90.5167232 L184.734712,90.5167232 L184.216712,92.5747232 L182.662712,92.5747232 Z M186.232712,84.2867232 L185.042712,89.1447232 L188.108712,89.1447232 L186.932712,84.2867232 L186.232712,84.2867232 Z M197.250712,92.5747232 L191.874712,92.5747232 L191.874712,82.9847232 L193.428712,82.9847232 L193.428712,91.1887232 L197.250712,91.1887232 L197.250712,92.5747232 Z M200.190712,90.5447232 C200.508047,91.0953926 201.114707,91.3707232 202.010712,91.3707232 C202.906716,91.3707232 203.511044,91.1000593 203.823712,90.5587232 C204.13638,90.0173872 204.292712,89.1097296 204.292712,87.8357232 C204.292712,86.5617168 204.131713,85.6353928 203.809712,85.0567232 C203.48771,84.4780537 202.88805,84.1887232 202.010712,84.1887232 C201.133374,84.1887232 200.53138,84.4780537 200.204712,85.0567232 C199.878044,85.6353928 199.714712,86.5570502 199.714712,87.8217232 C199.714712,89.0863962 199.873377,89.9940538 200.190712,90.5447232 Z M202.010712,82.8307232 C203.448052,82.8307232 204.456042,83.2390525 205.034712,84.0557232 C205.613381,84.872394 205.902712,86.1300481 205.902712,87.8287232 C205.902712,89.5273984 205.613381,90.7687193 205.034712,91.5527232 C204.465376,92.3367271 203.457386,92.7287232 202.010712,92.7287232 C200.564038,92.7287232 199.551381,92.3343938 198.972712,91.5457232 C198.394042,90.7570526 198.104712,89.518065 198.104712,87.8287232 C198.104712,86.1393814 198.396376,84.8840607 198.979712,84.0627232 C199.563048,83.2413858 200.573371,82.8307232 202.010712,82.8307232 Z M211.348712,82.9847232 C213.514056,82.9847232 214.596712,84.0020464 214.596712,86.0367232 C214.596712,87.3993967 214.07405,88.3233875 213.028712,88.8087232 L214.610712,92.5747232 L212.902712,92.5747232 L211.516712,89.1587232 L209.262712,89.1587232 L209.262712,92.5747232 L207.708712,92.5747232 L207.708712,82.9847232 L211.348712,82.9847232 Z M211.348712,84.3287232 L209.262712,84.3287232 L209.262712,87.8147232 L211.376712,87.8147232 C211.936715,87.8147232 212.347377,87.6537248 212.608712,87.3317232 C212.870047,87.0097216 213.000712,86.5827259 213.000712,86.0507232 C213.000712,84.9027175 212.450051,84.3287232 211.348712,84.3287232 L211.348712,84.3287232 Z" id="ENTREGADEVALOR" fill-opacity="0.9" fill="#4D4D4E" fill-rule="nonzero"></path>
                        <path d="M285.10661,72.6847236 L287.47261,63.0947236 L290.56661,63.0947236 L292.94661,72.6847236 L291.37861,72.6847236 L290.86061,70.6267236 L287.17861,70.6267236 L286.66061,72.6847236 L285.10661,72.6847236 Z M288.67661,64.3967236 L287.48661,69.2547236 L290.55261,69.2547236 L289.37661,64.3967236 L288.67661,64.3967236 Z M297.63661,72.6847236 L294.31861,72.6847236 L294.31861,63.0947236 L297.63661,63.0947236 C299.111284,63.0947236 300.119274,63.4680532 300.66061,64.2147236 C301.201946,64.961394 301.47261,66.1327156 301.47261,67.7287236 C301.47261,68.5407276 301.418944,69.2290541 301.31161,69.7937236 C301.204276,70.3583931 301.015278,70.869388 300.74461,71.3267236 C300.212608,72.2320614 299.176618,72.6847236 297.63661,72.6847236 Z M299.86261,67.7287236 C299.86261,66.5713845 299.717945,65.7360595 299.42861,65.2227236 C299.139275,64.7093877 298.541948,64.4527236 297.63661,64.4527236 L295.87261,64.4527236 L295.87261,71.3127236 L297.63661,71.3127236 C298.560615,71.3127236 299.176609,70.9720603 299.48461,70.2907236 C299.633944,69.9453885 299.734277,69.5767255 299.78561,69.1847236 C299.836944,68.7927216 299.86261,68.3073931 299.86261,67.7287236 Z M302.46661,72.6847236 L304.83261,63.0947236 L307.92661,63.0947236 L310.30661,72.6847236 L308.73861,72.6847236 L308.22061,70.6267236 L304.53861,70.6267236 L304.02061,72.6847236 L302.46661,72.6847236 Z M306.03661,64.3967236 L304.84661,69.2547236 L307.91261,69.2547236 L306.73661,64.3967236 L306.03661,64.3967236 Z M315.19261,69.7027236 L313.23261,69.7027236 L313.23261,72.6847236 L311.67861,72.6847236 L311.67861,63.0947236 L315.19261,63.0947236 C317.367288,63.0947236 318.45461,64.1680462 318.45461,66.3147236 C318.45461,67.4160624 318.181613,68.256054 317.63561,68.8347236 C317.089607,69.4133931 316.275282,69.7027236 315.19261,69.7027236 Z M313.23261,68.3587236 L315.17861,68.3587236 C316.298616,68.3587236 316.85861,67.6773971 316.85861,66.3147236 C316.85861,65.661387 316.723278,65.1853917 316.45261,64.8867236 C316.181942,64.5880554 315.75728,64.4387236 315.17861,64.4387236 L313.23261,64.4387236 L313.23261,68.3587236 Z M319.02861,64.4807236 L319.02861,63.0947236 L326.02861,63.0947236 L326.02861,64.4807236 L323.32661,64.4807236 L323.32661,72.6847236 L321.75861,72.6847236 L321.75861,64.4807236 L319.02861,64.4807236 Z M326.49061,72.6847236 L328.85661,63.0947236 L331.95061,63.0947236 L334.33061,72.6847236 L332.76261,72.6847236 L332.24461,70.6267236 L328.56261,70.6267236 L328.04461,72.6847236 L326.49061,72.6847236 Z M330.06061,64.3967236 L328.87061,69.2547236 L331.93661,69.2547236 L330.76061,64.3967236 L330.06061,64.3967236 Z M338.92261,72.8387236 C337.522603,72.8387236 336.572946,72.4513941 336.07361,71.6767236 C335.574274,70.902053 335.32461,69.6280658 335.32461,67.8547236 C335.32461,66.0813814 335.576608,64.8190607 336.08061,64.0677236 C336.584613,63.3163865 337.531937,62.9407236 338.92261,62.9407236 C339.753281,62.9407236 340.667939,63.0573891 341.66661,63.2907236 L341.61061,64.5507236 C340.770606,64.4013895 339.930614,64.3267236 339.09061,64.3267236 C338.250606,64.3267236 337.681278,64.5763878 337.38261,65.0757236 C337.083942,65.5750594 336.93461,66.51305 336.93461,67.8897236 C336.93461,69.2663971 337.079275,70.2043878 337.36861,70.7037236 C337.657945,71.2030594 338.222606,71.4527236 339.06261,71.4527236 C339.902614,71.4527236 340.751939,71.3827243 341.61061,71.2427236 L341.65261,72.5307236 C340.691272,72.7360579 339.781281,72.8387236 338.92261,72.8387236 Z M343.31861,72.6847236 L343.31861,63.0947236 L344.87261,63.0947236 L344.87261,72.6847236 L343.31861,72.6847236 Z M348.75061,70.6547236 C349.067945,71.205393 349.674606,71.4807236 350.57061,71.4807236 C351.466615,71.4807236 352.070942,71.2100596 352.38361,70.6687236 C352.696278,70.1273875 352.85261,69.21973 352.85261,67.9457236 C352.85261,66.6717172 352.691612,65.7453931 352.36961,65.1667236 C352.047609,64.588054 351.447948,64.2987236 350.57061,64.2987236 C349.693272,64.2987236 349.091278,64.588054 348.76461,65.1667236 C348.437942,65.7453931 348.27461,66.6670506 348.27461,67.9317236 C348.27461,69.1963966 348.433275,70.1040542 348.75061,70.6547236 Z M353.59461,71.6627236 C353.025274,72.4467275 352.017284,72.8387236 350.57061,72.8387236 C349.123936,72.8387236 348.11128,72.4443942 347.53261,71.6557236 C346.953941,70.867053 346.66461,69.6280654 346.66461,67.9387236 C346.66461,66.2493818 346.956274,64.994061 347.53961,64.1727236 C348.122946,63.3513861 349.13327,62.9407236 350.57061,62.9407236 C352.007951,62.9407236 353.015941,63.3490528 353.59461,64.1657236 C354.17328,64.9823943 354.46261,66.2400484 354.46261,67.9387236 C354.46261,69.6373987 354.17328,70.8787197 353.59461,71.6627236 Z M348.51261,60.9807236 L351.81661,59.5387236 L352.30661,60.8967236 L348.90461,62.0447236 L348.51261,60.9807236 Z M356.26861,72.6847236 L356.26861,63.0947236 L358.98461,63.0947236 L361.89661,71.3127236 L362.10661,71.3127236 L362.10661,63.0947236 L363.66061,63.0947236 L363.66061,72.6847236 L361.00061,72.6847236 L358.01861,64.4527236 L357.82261,64.4527236 L357.82261,72.6847236 L356.26861,72.6847236 Z M291.30861,92.5747232 L293.67461,82.9847232 L296.76861,82.9847232 L299.14861,92.5747232 L297.58061,92.5747232 L297.06261,90.5167232 L293.38061,90.5167232 L292.86261,92.5747232 L291.30861,92.5747232 Z M294.87861,84.2867232 L293.68861,89.1447232 L296.75461,89.1447232 L295.57861,84.2867232 L294.87861,84.2867232 Z M305.89661,92.5747232 L300.52061,92.5747232 L300.52061,82.9847232 L302.07461,82.9847232 L302.07461,91.1887232 L305.89661,91.1887232 L305.89661,92.5747232 Z M313.47061,92.7287232 C312.070603,92.7287232 311.120946,92.3413938 310.62161,91.5667232 C310.122274,90.7920527 309.87261,89.5180654 309.87261,87.7447232 C309.87261,85.971381 310.124608,84.7090603 310.62861,83.9577232 C311.132613,83.2063861 312.079937,82.8307232 313.47061,82.8307232 C314.301281,82.8307232 315.215939,82.9473887 316.21461,83.1807232 L316.15861,84.4407232 C315.318606,84.2913891 314.478614,84.2167232 313.63861,84.2167232 C312.798606,84.2167232 312.229278,84.4663874 311.93061,84.9657232 C311.631942,85.465059 311.48261,86.4030497 311.48261,87.7797232 C311.48261,89.1563968 311.627275,90.0943874 311.91661,90.5937232 C312.205945,91.093059 312.770606,91.3427232 313.61061,91.3427232 C314.450614,91.3427232 315.299939,91.2727239 316.15861,91.1327232 L316.20061,92.4207232 C315.239272,92.6260576 314.329281,92.7287232 313.47061,92.7287232 Z M317.04061,92.5747232 L319.40661,82.9847232 L322.50061,82.9847232 L324.88061,92.5747232 L323.31261,92.5747232 L322.79461,90.5167232 L319.11261,90.5167232 L318.59461,92.5747232 L317.04061,92.5747232 Z M320.61061,84.2867232 L319.42061,89.1447232 L322.48661,89.1447232 L321.31061,84.2867232 L320.61061,84.2867232 Z M326.25261,92.5747232 L326.25261,82.9847232 L328.95461,82.9847232 L331.09661,90.4747232 L333.23861,82.9847232 L335.95461,82.9847232 L335.95461,92.5747232 L334.38661,92.5747232 L334.38661,84.7067232 L334.17661,84.7067232 L331.90861,92.1827232 L330.28461,92.1827232 L328.01661,84.7067232 L327.80661,84.7067232 L327.80661,92.5747232 L326.25261,92.5747232 Z M338.15261,82.9847232 L341.79261,82.9847232 C342.772615,82.9847232 343.505274,83.1830546 343.99061,83.5797232 C344.475946,83.9763919 344.71861,84.6087189 344.71861,85.4767232 C344.71861,86.0460594 344.627611,86.4940549 344.44561,86.8207232 C344.263609,87.1473915 343.976612,87.4180555 343.58461,87.6327232 C344.499281,87.9873917 344.95661,88.7293842 344.95661,89.8587232 C344.95661,91.6693989 343.939287,92.5747232 341.90461,92.5747232 L338.15261,92.5747232 L338.15261,82.9847232 Z M341.79261,88.3887232 L339.70661,88.3887232 L339.70661,91.2307232 L341.82061,91.2307232 C342.333946,91.2307232 342.718942,91.123391 342.97561,90.9087232 C343.232278,90.6940555 343.36061,90.3253925 343.36061,89.8027232 C343.36061,89.2800539 343.211278,88.9137243 342.91261,88.7037232 C342.613942,88.4937222 342.240612,88.3887232 341.79261,88.3887232 Z M341.70861,84.3287232 L339.70661,84.3287232 L339.70661,87.0727232 L341.76461,87.0727232 C342.679281,87.0727232 343.13661,86.6013946 343.13661,85.6587232 C343.13661,84.7720521 342.660615,84.3287232 341.70861,84.3287232 Z M346.72061,92.5747232 L346.72061,82.9847232 L348.27461,82.9847232 L348.27461,92.5747232 L346.72061,92.5747232 Z M352.15261,90.5447232 C352.469945,91.0953926 353.076606,91.3707232 353.97261,91.3707232 C354.868615,91.3707232 355.472942,91.1000593 355.78561,90.5587232 C356.098278,90.0173872 356.25461,89.1097296 356.25461,87.8357232 C356.25461,86.5617168 356.093612,85.6353928 355.77161,85.0567232 C355.449609,84.4780537 354.849948,84.1887232 353.97261,84.1887232 C353.095272,84.1887232 352.493278,84.4780537 352.16661,85.0567232 C351.839942,85.6353928 351.67661,86.5570502 351.67661,87.8217232 C351.67661,89.0863962 351.835275,89.9940538 352.15261,90.5447232 Z M356.99661,91.5527232 C356.427274,92.3367271 355.419284,92.7287232 353.97261,92.7287232 C352.525936,92.7287232 351.51328,92.3343938 350.93461,91.5457232 C350.355941,90.7570526 350.06661,89.518065 350.06661,87.8287232 C350.06661,86.1393814 350.358274,84.8840607 350.94161,84.0627232 C351.524946,83.2413858 352.53527,82.8307232 353.97261,82.8307232 C355.409951,82.8307232 356.417941,83.2390525 356.99661,84.0557232 C357.57528,84.872394 357.86461,86.1300481 357.86461,87.8287232 C357.86461,89.5273984 357.57528,90.7687193 356.99661,91.5527232 Z" id="ADAPTACIÓNALCAMBIO" fill-opacity="0.9" fill="#4D4D4E" fill-rule="nonzero"></path>
                        <path d="M438.410746,72.8387236 C437.010739,72.8387236 436.061082,72.4513941 435.561746,71.6767236 C435.06241,70.902053 434.812746,69.6280658 434.812746,67.8547236 C434.812746,66.0813814 435.064743,64.8190607 435.568746,64.0677236 C436.072748,63.3163865 437.020072,62.9407236 438.410746,62.9407236 C439.241417,62.9407236 440.156074,63.0573891 441.154746,63.2907236 L441.098746,64.5507236 C440.258742,64.4013895 439.41875,64.3267236 438.578746,64.3267236 C437.738742,64.3267236 437.169414,64.5763878 436.870746,65.0757236 C436.572078,65.5750594 436.422746,66.51305 436.422746,67.8897236 C436.422746,69.2663971 436.567411,70.2043878 436.856746,70.7037236 C437.146081,71.2030594 437.710742,71.4527236 438.550746,71.4527236 C439.39075,71.4527236 440.240075,71.3827243 441.098746,71.2427236 L441.140746,72.5307236 C440.179408,72.7360579 439.269417,72.8387236 438.410746,72.8387236 Z M444.290746,69.6187236 C444.290746,70.8600631 444.944073,71.4807236 446.250746,71.4807236 C447.557419,71.4807236 448.210746,70.8600631 448.210746,69.6187236 L448.210746,63.0947236 L449.778746,63.0947236 L449.778746,69.5907236 C449.778746,70.7200626 449.482415,71.543721 448.889746,72.0617236 C448.297076,72.5797262 447.415085,72.8387236 446.243746,72.8387236 C445.072407,72.8387236 444.192749,72.5797262 443.604746,72.0617236 C443.016743,71.543721 442.722746,70.7200626 442.722746,69.5907236 L442.722746,63.0947236 L444.290746,63.0947236 L444.290746,69.6187236 Z M451.906746,72.6847236 L451.906746,63.0947236 L453.460746,63.0947236 L453.460746,72.6847236 L451.906746,72.6847236 Z M458.990746,72.6847236 L455.672746,72.6847236 L455.672746,63.0947236 L458.990746,63.0947236 C460.46542,63.0947236 461.47341,63.4680532 462.014746,64.2147236 C462.556082,64.961394 462.826746,66.1327156 462.826746,67.7287236 C462.826746,68.5407276 462.77308,69.2290541 462.665746,69.7937236 C462.558412,70.3583931 462.369414,70.869388 462.098746,71.3267236 C461.566743,72.2320614 460.530753,72.6847236 458.990746,72.6847236 Z M461.216746,67.7287236 C461.216746,66.5713845 461.072081,65.7360595 460.782746,65.2227236 C460.493411,64.7093877 459.896084,64.4527236 458.990746,64.4527236 L457.226746,64.4527236 L457.226746,71.3127236 L458.990746,71.3127236 C459.91475,71.3127236 460.530744,70.9720603 460.838746,70.2907236 C460.98808,69.9453885 461.088412,69.5767255 461.139746,69.1847236 C461.191079,68.7927216 461.216746,68.3073931 461.216746,67.7287236 Z M463.820746,72.6847236 L466.186746,63.0947236 L469.280746,63.0947236 L471.660746,72.6847236 L470.092746,72.6847236 L469.574746,70.6267236 L465.892746,70.6267236 L465.374746,72.6847236 L463.820746,72.6847236 Z M467.390746,64.3967236 L466.200746,69.2547236 L469.266746,69.2547236 L468.090746,64.3967236 L467.390746,64.3967236 Z M476.350746,72.6847236 L473.032746,72.6847236 L473.032746,63.0947236 L476.350746,63.0947236 C477.82542,63.0947236 478.83341,63.4680532 479.374746,64.2147236 C479.916082,64.961394 480.186746,66.1327156 480.186746,67.7287236 C480.186746,68.5407276 480.13308,69.2290541 480.025746,69.7937236 C479.918412,70.3583931 479.729414,70.869388 479.458746,71.3267236 C478.926743,72.2320614 477.890753,72.6847236 476.350746,72.6847236 Z M478.576746,67.7287236 C478.576746,66.5713845 478.432081,65.7360595 478.142746,65.2227236 C477.853411,64.7093877 477.256084,64.4527236 476.350746,64.4527236 L474.586746,64.4527236 L474.586746,71.3127236 L476.350746,71.3127236 C477.27475,71.3127236 477.890744,70.9720603 478.198746,70.2907236 C478.34808,69.9453885 478.448412,69.5767255 478.499746,69.1847236 C478.551079,68.7927216 478.576746,68.3073931 478.576746,67.7287236 Z M483.672746,70.6547236 C483.990081,71.205393 484.596741,71.4807236 485.492746,71.4807236 C486.38875,71.4807236 486.993078,71.2100596 487.305746,70.6687236 C487.618414,70.1273875 487.774746,69.21973 487.774746,67.9457236 C487.774746,66.6717172 487.613747,65.7453931 487.291746,65.1667236 C486.969744,64.588054 486.370083,64.2987236 485.492746,64.2987236 C484.615408,64.2987236 484.013414,64.588054 483.686746,65.1667236 C483.360077,65.7453931 483.196746,66.6670506 483.196746,67.9317236 C483.196746,69.1963966 483.355411,70.1040542 483.672746,70.6547236 Z M488.516746,71.6627236 C487.94741,72.4467275 486.93942,72.8387236 485.492746,72.8387236 C484.046072,72.8387236 483.033415,72.4443942 482.454746,71.6557236 C481.876076,70.867053 481.586746,69.6280654 481.586746,67.9387236 C481.586746,66.2493818 481.87841,64.994061 482.461746,64.1727236 C483.045082,63.3513861 484.055405,62.9407236 485.492746,62.9407236 C486.930086,62.9407236 487.938076,63.3490528 488.516746,64.1657236 C489.095415,64.9823943 489.384746,66.2400484 489.384746,67.9387236 C489.384746,69.6373987 489.095415,70.8787197 488.516746,71.6627236 Z M425.138746,92.5747232 L421.820746,92.5747232 L421.820746,82.9847232 L425.138746,82.9847232 C426.61342,82.9847232 427.62141,83.3580528 428.162746,84.1047232 C428.704082,84.8513936 428.974746,86.0227152 428.974746,87.6187232 C428.974746,88.4307273 428.92108,89.1190537 428.813746,89.6837232 C428.706412,90.2483927 428.517414,90.7593876 428.246746,91.2167232 C427.714743,92.1220611 426.678753,92.5747232 425.138746,92.5747232 Z M427.364746,87.6187232 C427.364746,86.4613841 427.220081,85.6260591 426.930746,85.1127232 C426.641411,84.5993873 426.044084,84.3427232 425.138746,84.3427232 L423.374746,84.3427232 L423.374746,91.2027232 L425.138746,91.2027232 C426.06275,91.2027232 426.678744,90.86206 426.986746,90.1807232 C427.13608,89.8353882 427.236412,89.4667252 427.287746,89.0747232 C427.339079,88.6827213 427.364746,88.1973928 427.364746,87.6187232 Z M430.794746,92.5747232 L430.794746,82.9847232 L436.842746,82.9847232 L436.842746,84.3427232 L432.348746,84.3427232 L432.348746,87.0587232 L436.002746,87.0587232 L436.002746,88.4027232 L432.348746,88.4027232 L432.348746,91.2027232 L436.842746,91.2027232 L436.842746,92.5747232 L430.794746,92.5747232 Z M443.912746,92.5747232 L438.536746,92.5747232 L438.536746,82.9847232 L440.090746,82.9847232 L440.090746,91.1887232 L443.912746,91.1887232 L443.912746,92.5747232 Z M447.342746,84.3707232 L447.342746,82.9847232 L454.342746,82.9847232 L454.342746,84.3707232 L451.640746,84.3707232 L451.640746,92.5747232 L450.072746,92.5747232 L450.072746,84.3707232 L447.342746,84.3707232 Z M454.804746,92.5747232 L457.170746,82.9847232 L460.264746,82.9847232 L462.644746,92.5747232 L461.076746,92.5747232 L460.558746,90.5167232 L456.876746,90.5167232 L456.358746,92.5747232 L454.804746,92.5747232 Z M458.374746,84.2867232 L457.184746,89.1447232 L460.250746,89.1447232 L459.074746,84.2867232 L458.374746,84.2867232 Z M469.392746,92.5747232 L464.016746,92.5747232 L464.016746,82.9847232 L465.570746,82.9847232 L465.570746,91.1887232 L469.392746,91.1887232 L469.392746,92.5747232 Z M470.666746,92.5747232 L470.666746,82.9847232 L476.714746,82.9847232 L476.714746,84.3427232 L472.220746,84.3427232 L472.220746,87.0587232 L475.874746,87.0587232 L475.874746,88.4027232 L472.220746,88.4027232 L472.220746,91.2027232 L476.714746,91.2027232 L476.714746,92.5747232 L470.666746,92.5747232 Z M478.408746,92.5747232 L478.408746,82.9847232 L481.124746,82.9847232 L484.036746,91.2027232 L484.246746,91.2027232 L484.246746,82.9847232 L485.800746,82.9847232 L485.800746,92.5747232 L483.140746,92.5747232 L480.158746,84.3427232 L479.962746,84.3427232 L479.962746,92.5747232 L478.408746,92.5747232 Z M487.088746,84.3707232 L487.088746,82.9847232 L494.088746,82.9847232 L494.088746,84.3707232 L491.386746,84.3707232 L491.386746,92.5747232 L489.818746,92.5747232 L489.818746,84.3707232 L487.088746,84.3707232 Z M497.042746,90.5447232 C497.360081,91.0953926 497.966741,91.3707232 498.862746,91.3707232 C499.75875,91.3707232 500.363078,91.1000593 500.675746,90.5587232 C500.988414,90.0173872 501.144746,89.1097296 501.144746,87.8357232 C501.144746,86.5617168 500.983747,85.6353928 500.661746,85.0567232 C500.339744,84.4780537 499.740083,84.1887232 498.862746,84.1887232 C497.985408,84.1887232 497.383414,84.4780537 497.056746,85.0567232 C496.730077,85.6353928 496.566746,86.5570502 496.566746,87.8217232 C496.566746,89.0863962 496.725411,89.9940538 497.042746,90.5447232 Z M501.886746,91.5527232 C501.31741,92.3367271 500.30942,92.7287232 498.862746,92.7287232 C497.416072,92.7287232 496.403415,92.3343938 495.824746,91.5457232 C495.246076,90.7570526 494.956746,89.518065 494.956746,87.8287232 C494.956746,86.1393814 495.24841,84.8840607 495.831746,84.0627232 C496.415082,83.2413858 497.425405,82.8307232 498.862746,82.8307232 C500.300086,82.8307232 501.308076,83.2390525 501.886746,84.0557232 C502.465415,84.872394 502.754746,86.1300481 502.754746,87.8287232 C502.754746,89.5273984 502.465415,90.7687193 501.886746,91.5527232 Z" id="CUIDADODELTALENTO" fill-opacity="0.9" fill="#4D4D4E" fill-rule="nonzero"></path>
                        <path d="M560.23939,69.7027236 L558.27939,69.7027236 L558.27939,72.6847236 L556.72539,72.6847236 L556.72539,63.0947236 L560.23939,63.0947236 C562.414067,63.0947236 563.50139,64.1680462 563.50139,66.3147236 C563.50139,67.4160624 563.228393,68.256054 562.68239,68.8347236 C562.136387,69.4133931 561.322062,69.7027236 560.23939,69.7027236 Z M558.27939,68.3587236 L560.22539,68.3587236 C561.345395,68.3587236 561.90539,67.6773971 561.90539,66.3147236 C561.90539,65.661387 561.770058,65.1853917 561.49939,64.8867236 C561.228722,64.5880554 560.804059,64.4387236 560.22539,64.4387236 L558.27939,64.4387236 L558.27939,68.3587236 Z M564.99939,72.6847236 L564.99939,63.0947236 L571.04739,63.0947236 L571.04739,64.4527236 L566.55339,64.4527236 L566.55339,67.1687236 L570.20739,67.1687236 L570.20739,68.5127236 L566.55339,68.5127236 L566.55339,71.3127236 L571.04739,71.3127236 L571.04739,72.6847236 L564.99939,72.6847236 Z M572.74139,72.6847236 L572.74139,63.0947236 L575.45739,63.0947236 L578.36939,71.3127236 L578.57939,71.3127236 L578.57939,63.0947236 L580.13339,63.0947236 L580.13339,72.6847236 L577.47339,72.6847236 L574.49139,64.4527236 L574.29539,64.4527236 L574.29539,72.6847236 L572.74139,72.6847236 Z M585.15939,64.2987236 C583.974051,64.2987236 583.38139,64.7140528 583.38139,65.5447236 C583.38139,65.9740591 583.521388,66.2797227 583.80139,66.4617236 C584.081391,66.6437245 584.699718,66.8677223 585.65639,67.1337236 C586.613061,67.3997249 587.287388,67.7170551 587.67939,68.0857236 C588.071392,68.4543921 588.26739,69.0353863 588.26739,69.8287236 C588.26739,70.8367286 587.980393,71.5903878 587.40639,72.0897236 C586.832387,72.5890594 586.050728,72.8387236 585.06139,72.8387236 C584.268053,72.8387236 583.390728,72.7453912 582.42939,72.5587236 L581.92539,72.4607236 L582.07939,71.2147236 L582.737045,71.2980297 C583.679096,71.4104927 584.421205,71.4667236 584.96339,71.4667236 C586.120729,71.4667236 586.69939,70.9533954 586.69939,69.9267236 C586.69939,69.5253882 586.568724,69.2290579 586.30739,69.0377236 C586.067833,68.8623338 585.553792,68.6712614 584.765252,68.4645016 L584.54339,68.4077236 C583.628719,68.1790558 582.947392,67.8640589 582.49939,67.4627236 C582.051388,67.0613882 581.82739,66.4267236 581.82739,65.5587236 C581.82739,64.6907192 582.10972,64.0350591 582.67439,63.5917236 C583.239059,63.148388 584.020718,62.9267236 585.01939,62.9267236 C585.73806,62.9267236 586.587385,63.0107227 587.56739,63.1787236 L588.05739,63.2627236 L587.93139,64.5227236 L587.087908,64.4312677 C586.218637,64.3429046 585.575802,64.2987236 585.15939,64.2987236 Z M589.12139,72.6847236 L591.48739,63.0947236 L594.58139,63.0947236 L596.96139,72.6847236 L595.39339,72.6847236 L594.87539,70.6267236 L591.19339,70.6267236 L590.67539,72.6847236 L589.12139,72.6847236 Z M592.69139,64.3967236 L591.50139,69.2547236 L594.56739,69.2547236 L593.39139,64.3967236 L592.69139,64.3967236 Z M598.33339,72.6847236 L598.33339,63.0947236 L601.03539,63.0947236 L603.17739,70.5847236 L605.31939,63.0947236 L608.03539,63.0947236 L608.03539,72.6847236 L606.46739,72.6847236 L606.46739,64.8167236 L606.25739,64.8167236 L603.98939,72.2927236 L602.36539,72.2927236 L600.09739,64.8167236 L599.88739,64.8167236 L599.88739,72.6847236 L598.33339,72.6847236 Z M610.23339,72.6847236 L610.23339,63.0947236 L611.78739,63.0947236 L611.78739,72.6847236 L610.23339,72.6847236 Z M613.99939,72.6847236 L613.99939,63.0947236 L620.04739,63.0947236 L620.04739,64.4527236 L615.55339,64.4527236 L615.55339,67.1687236 L619.20739,67.1687236 L619.20739,68.5127236 L615.55339,68.5127236 L615.55339,71.3127236 L620.04739,71.3127236 L620.04739,72.6847236 L613.99939,72.6847236 Z M621.74139,72.6847236 L621.74139,63.0947236 L624.45739,63.0947236 L627.36939,71.3127236 L627.57939,71.3127236 L627.57939,63.0947236 L629.13339,63.0947236 L629.13339,72.6847236 L626.47339,72.6847236 L623.49139,64.4527236 L623.29539,64.4527236 L623.29539,72.6847236 L621.74139,72.6847236 Z M630.42139,64.4807236 L630.42139,63.0947236 L637.42139,63.0947236 L637.42139,64.4807236 L634.71939,64.4807236 L634.71939,72.6847236 L633.15139,72.6847236 L633.15139,64.4807236 L630.42139,64.4807236 Z M640.37539,70.6547236 C640.692725,71.205393 641.299385,71.4807236 642.19539,71.4807236 C643.091394,71.4807236 643.695722,71.2100596 644.00839,70.6687236 C644.321058,70.1273875 644.47739,69.21973 644.47739,67.9457236 C644.47739,66.6717172 644.316391,65.7453931 643.99439,65.1667236 C643.672388,64.588054 643.072728,64.2987236 642.19539,64.2987236 C641.318052,64.2987236 640.716058,64.588054 640.38939,65.1667236 C640.062722,65.7453931 639.89939,66.6670506 639.89939,67.9317236 C639.89939,69.1963966 640.058055,70.1040542 640.37539,70.6547236 Z M645.21939,71.6627236 C644.650054,72.4467275 643.642064,72.8387236 642.19539,72.8387236 C640.748716,72.8387236 639.736059,72.4443942 639.15739,71.6557236 C638.57872,70.867053 638.28939,69.6280654 638.28939,67.9387236 C638.28939,66.2493818 638.581054,64.994061 639.16439,64.1727236 C639.747726,63.3513861 640.758049,62.9407236 642.19539,62.9407236 C643.63273,62.9407236 644.64072,63.3490528 645.21939,64.1657236 C645.798059,64.9823943 646.08739,66.2400484 646.08739,67.9387236 C646.08739,69.6373987 645.798059,70.8787197 645.21939,71.6627236 Z M560.30939,92.5747232 L560.30939,82.9847232 L566.35739,82.9847232 L566.35739,84.3427232 L561.86339,84.3427232 L561.86339,87.0587232 L565.51739,87.0587232 L565.51739,88.4027232 L561.86339,88.4027232 L561.86339,91.2027232 L566.35739,91.2027232 L566.35739,92.5747232 L560.30939,92.5747232 Z M570.86539,84.1887232 C569.680051,84.1887232 569.08739,84.6040524 569.08739,85.4347232 C569.08739,85.8640587 569.227388,86.1697223 569.50739,86.3517232 C569.787391,86.5337241 570.405718,86.7577219 571.36239,87.0237232 C572.319061,87.2897245 572.993388,87.6070547 573.38539,87.9757232 C573.777392,88.3443917 573.97339,88.9253859 573.97339,89.7187232 C573.97339,90.7267283 573.686393,91.4803874 573.11239,91.9797232 C572.538387,92.479059 571.756728,92.7287232 570.76739,92.7287232 C569.974053,92.7287232 569.096728,92.6353908 568.13539,92.4487232 L567.63139,92.3507232 L567.78539,91.1047232 L568.443045,91.1880293 C569.385096,91.3004924 570.127205,91.3567232 570.66939,91.3567232 C571.826729,91.3567232 572.40539,90.843395 572.40539,89.8167232 C572.40539,89.4153879 572.274724,89.1190575 572.01339,88.9277232 C571.773833,88.7523334 571.259792,88.5612611 570.471252,88.3545012 L570.24939,88.2977232 C569.334719,88.0690554 568.653392,87.7540586 568.20539,87.3527232 C567.757388,86.9513879 567.53339,86.3167232 567.53339,85.4487232 C567.53339,84.5807189 567.81572,83.9250588 568.38039,83.4817232 C568.945059,83.0383877 569.726718,82.8167232 570.72539,82.8167232 C571.44406,82.8167232 572.293385,82.9007224 573.27339,83.0687232 L573.76339,83.1527232 L573.63739,84.4127232 L572.793908,84.3212673 C571.924637,84.2329042 571.281802,84.1887232 570.86539,84.1887232 Z M574.72939,84.3707232 L574.72939,82.9847232 L581.72939,82.9847232 L581.72939,84.3707232 L579.02739,84.3707232 L579.02739,92.5747232 L577.45939,92.5747232 L577.45939,84.3707232 L574.72939,84.3707232 Z M584.57139,89.1587232 L584.57139,92.5747232 L583.01739,92.5747232 L583.01739,82.9847232 L586.65739,82.9847232 C588.822734,82.9847232 589.90539,84.0020464 589.90539,86.0367232 C589.90539,87.3993967 589.382728,88.3233875 588.33739,88.8087232 L589.91939,92.5747232 L588.21139,92.5747232 L586.82539,89.1587232 L584.57139,89.1587232 Z M588.30939,86.0507232 C588.30939,84.9027175 587.758729,84.3287232 586.65739,84.3287232 L584.57139,84.3287232 L584.57139,87.8147232 L586.68539,87.8147232 C587.245393,87.8147232 587.656055,87.6537248 587.91739,87.3317232 C588.178724,87.0097216 588.30939,86.5827259 588.30939,86.0507232 Z M590.84339,92.5747232 L593.20939,82.9847232 L596.30339,82.9847232 L598.68339,92.5747232 L597.11539,92.5747232 L596.59739,90.5167232 L592.91539,90.5167232 L592.39739,92.5747232 L590.84339,92.5747232 Z M594.41339,84.2867232 L593.22339,89.1447232 L596.28939,89.1447232 L595.11339,84.2867232 L594.41339,84.2867232 Z M599.13139,84.3707232 L599.13139,82.9847232 L606.13139,82.9847232 L606.13139,84.3707232 L603.42939,84.3707232 L603.42939,92.5747232 L601.86139,92.5747232 L601.86139,84.3707232 L599.13139,84.3707232 Z M607.41939,92.5747232 L607.41939,82.9847232 L613.46739,82.9847232 L613.46739,84.3427232 L608.97339,84.3427232 L608.97339,87.0587232 L612.62739,87.0587232 L612.62739,88.4027232 L608.97339,88.4027232 L608.97339,91.2027232 L613.46739,91.2027232 L613.46739,92.5747232 L607.41939,92.5747232 Z M608.60939,80.8707232 L611.91339,79.4287232 L612.40339,80.7867232 L609.00139,81.9347232 L608.60939,80.8707232 Z M619.06739,88.9067232 L619.06739,87.5347232 L621.79739,87.5347232 L621.79739,92.4067232 C621.595789,92.4589901 621.228432,92.5142431 620.695311,92.5724831 L620.26439,92.6167232 C619.494386,92.6913903 618.936725,92.7287232 618.59139,92.7287232 C617.135383,92.7287232 616.132059,92.3273939 615.58139,91.5247232 C615.03072,90.7220525 614.75539,89.4643984 614.75539,87.7517232 C614.75539,86.039048 615.03772,84.7907271 615.60239,84.0067232 C616.167059,83.2227193 617.144716,82.8307232 618.53539,82.8307232 C619.356727,82.8307232 620.280718,82.9240556 621.30739,83.1107232 L621.79739,83.2087232 L621.74139,84.4407232 C620.612051,84.2913891 619.599394,84.2167232 618.70339,84.2167232 C617.807385,84.2167232 617.193725,84.4687207 616.86239,84.9727232 C616.531055,85.4767257 616.36539,86.4100497 616.36539,87.7727232 C616.36539,89.1353967 616.521722,90.0757206 616.83439,90.5937232 C617.147058,91.1117258 617.779385,91.3707232 618.73139,91.3707232 C619.412727,91.3707232 619.921388,91.3287236 620.25739,91.2447232 L620.25739,88.9067232 L619.06739,88.9067232 Z M623.74339,92.5747232 L623.74339,82.9847232 L625.29739,82.9847232 L625.29739,92.5747232 L623.74339,92.5747232 Z M630.72939,92.7287232 C629.329383,92.7287232 628.379726,92.3413938 627.88039,91.5667232 C627.381054,90.7920527 627.13139,89.5180654 627.13139,87.7447232 C627.13139,85.971381 627.383387,84.7090603 627.88739,83.9577232 C628.391392,83.2063861 629.338716,82.8307232 630.72939,82.8307232 C631.560061,82.8307232 632.474718,82.9473887 633.47339,83.1807232 L633.41739,84.4407232 C632.577386,84.2913891 631.737394,84.2167232 630.89739,84.2167232 C630.057386,84.2167232 629.488058,84.4663874 629.18939,84.9657232 C628.890722,85.465059 628.74139,86.4030497 628.74139,87.7797232 C628.74139,89.1563968 628.886055,90.0943874 629.17539,90.5937232 C629.464725,91.093059 630.029386,91.3427232 630.86939,91.3427232 C631.709394,91.3427232 632.558719,91.2727239 633.41739,91.1327232 L633.45939,92.4207232 C632.498052,92.6260576 631.588061,92.7287232 630.72939,92.7287232 Z M636.79139,90.5447232 C637.108725,91.0953926 637.715385,91.3707232 638.61139,91.3707232 C639.507394,91.3707232 640.111722,91.1000593 640.42439,90.5587232 C640.737058,90.0173872 640.89339,89.1097296 640.89339,87.8357232 C640.89339,86.5617168 640.732391,85.6353928 640.41039,85.0567232 C640.088388,84.4780537 639.488728,84.1887232 638.61139,84.1887232 C637.734052,84.1887232 637.132058,84.4780537 636.80539,85.0567232 C636.478722,85.6353928 636.31539,86.5570502 636.31539,87.8217232 C636.31539,89.0863962 636.474055,89.9940538 636.79139,90.5447232 Z M641.63539,91.5527232 C641.066054,92.3367271 640.058064,92.7287232 638.61139,92.7287232 C637.164716,92.7287232 636.152059,92.3343938 635.57339,91.5457232 C634.99472,90.7570526 634.70539,89.518065 634.70539,87.8287232 C634.70539,86.1393814 634.997054,84.8840607 635.58039,84.0627232 C636.163726,83.2413858 637.174049,82.8307232 638.61139,82.8307232 C640.04873,82.8307232 641.05672,83.2390525 641.63539,84.0557232 C642.214059,84.872394 642.50339,86.1300481 642.50339,87.8287232 C642.50339,89.5273984 642.214059,90.7687193 641.63539,91.5527232 Z" id="PENSAMIENTOESTRATÉGICO" fill-opacity="0.9" fill="#4D4D4E" fill-rule="nonzero"></path>
                    </g>
                    <path d="M11.9034443,74.9581952 C12.3935279,109.370839 40.4772654,137.116564 75.0494732,137.116564 C109.578877,137.116564 137.635868,109.4395 138.193555,75.0859824 L138.193555,75.0859824 L138.194083,74.958 L149.183683,74.9585517 C148.936653,115.892748 115.635394,149 74.591846,149 C33.807115,149 0.66733617,116.308974 0.00861906705,75.7319937 L0.00861906705,75.7319937 L0.00208333382,74.958 Z M212.795236,-1.42108547e-14 C253.838784,-1.42108547e-14 287.140043,33.1072521 287.387073,74.0414483 L276.39739,74.042 L276.396945,73.9140176 C275.839258,39.5605005 247.782267,11.8834356 213.252863,11.8834356 C178.680655,11.8834356 150.596918,39.6291614 150.106834,74.0418048 L138.20539,74.042 L138.212009,73.2680063 C138.870726,32.6910259 172.010505,-1.42108547e-14 212.795236,-1.42108547e-14 Z" id="Combined-Shape" fill-opacity="0.5" fill="#FFFFFF"></path>
                    <path d="M350.998626,74.9570552 C392.042174,74.9570552 425.343433,108.064307 425.590463,148.998504 L414.60078,148.999055 L414.600335,148.871073 C414.042648,114.517556 385.985657,86.8404908 351.456253,86.8404908 C316.884045,86.8404908 288.800308,114.586217 288.310224,148.99886 L276.40878,148.999055 L276.415399,148.225061 C277.074116,107.648081 310.213895,74.9570552 350.998626,74.9570552 Z" id="Combined-Shape" fill-opacity="0.5" fill="#FFFFFF" transform="translate(350.998626, 111.978528) scale(1, -1) translate(-350.998626, -111.978528) "></path>
                    <path d="M627.405405,74.9570552 C668.448953,74.9570552 701.750213,108.064307 701.997242,148.998504 L691.007559,148.999055 L691.007114,148.871073 C690.449427,114.517556 662.392437,86.8404908 627.863032,86.8404908 C593.290825,86.8404908 565.207087,114.586217 564.717004,148.99886 L552.815559,148.999055 L552.822178,148.225061 C553.480895,107.648081 586.620674,74.9570552 627.405405,74.9570552 Z" id="Combined-Shape" fill-opacity="0.5" fill="#FFFFFF" transform="translate(627.405405, 111.978528) scale(1, -1) translate(-627.405405, -111.978528) "></path>
                    <path d="M489.202016,0 C530.245564,0 563.546823,33.1072521 563.793853,74.0414483 L552.804169,74.042 L552.803724,73.9140176 C552.246038,39.5605005 524.189047,11.8834356 489.659643,11.8834356 C455.087435,11.8834356 427.003697,39.6291614 426.513614,74.0418048 L414.612169,74.042 L414.618789,73.2680063 C415.277506,32.6910259 448.417284,0 489.202016,0 Z" id="Combined-Shape" fill-opacity="0.5" fill="#FFFFFF"></path>
                </g>
                <rect id="Rectangle" fill="#FFC180" x="276.40678" y="74.0429448" width="11.8983051" height="2.74233129"></rect>
                <rect id="Rectangle" fill="#FFC180" x="414.610169" y="73.1288344" width="10.9830508" height="2.74233129"></rect>
                <rect id="Rectangle" fill="#FFC180" x="553.728814" y="73.1288344" width="10.9830508" height="2.74233129"></rect>
                <g id="Group-57" transform="translate(420.546480, 74.863835) rotate(-90.000000) translate(-420.546480, -74.863835) translate(414.046480, 64.363835)" fill="#FF8300">
                    <path d="M1.65544301,10.0540248 L5.28992735,6.59800558 C5.55872478,6.34220573 5.55872478,5.92857193 5.28992735,5.67549335 C5.02112993,5.4196935 4.58647877,5.42241478 4.31768134,5.67549335 L0.19993354,9.5914081 C-0.0602852445,9.83904412 -0.0660043387,10.2363503 0.179916711,10.4921501 L4.3148218,14.4352776 C4.44922051,14.5631775 4.62651243,14.6257669 4.8009448,14.6257669 C4.97537717,14.6257669 5.15266909,14.5631775 5.28706781,14.4352776 C5.55586523,14.1794778 5.55586523,13.765844 5.28706781,13.5127654 L1.65544301,10.0540248 Z" id="Icon-Path" fill-rule="nonzero" transform="translate(2.745763, 10.055215) rotate(-180.000000) translate(-2.745763, -10.055215) "></path>
                    <path d="M2.48124905,20.1104294 C1.88816431,20.1104294 1.32985922,19.8791595 0.910672782,19.4595828 C0.49331685,19.0482331 0.259927019,18.4915399 0.259000995,17.9001104 C0.257181257,17.3050245 0.488740579,16.7446748 0.911588036,16.3232699 L7.1902321,10.0570429 L0.916164307,3.78715951 C0.498808375,3.3739816 0.266333799,2.81820245 0.26450329,2.2258589 C0.262672782,1.63077301 0.494232104,1.07042331 0.917079562,0.649018405 C1.33443549,0.230355828 1.89365583,0 2.4904016,0 C3.08714736,0 3.64545244,0.230355828 4.06372363,0.649932515 L11.9440626,8.53596319 C12.7760287,9.44276074 12.7467406,10.7892454 11.9047067,11.6293129 L4.0582321,19.4604969 C3.63263888,19.8809877 3.0743338,20.1104294 2.48124905,20.1104294 Z" id="Fill-1"></path>
                </g>
                <g id="Group-57" transform="translate(557.860299, 75.050276) rotate(90.000000) translate(-557.860299, -75.050276) translate(551.360299, 64.550276)" fill="#FF8300">
                    <path d="M1.65544301,10.0540248 L5.28992735,6.59800558 C5.55872478,6.34220573 5.55872478,5.92857193 5.28992735,5.67549335 C5.02112993,5.4196935 4.58647877,5.42241478 4.31768134,5.67549335 L0.19993354,9.5914081 C-0.0602852445,9.83904412 -0.0660043387,10.2363503 0.179916711,10.4921501 L4.3148218,14.4352776 C4.44922051,14.5631775 4.62651243,14.6257669 4.8009448,14.6257669 C4.97537717,14.6257669 5.15266909,14.5631775 5.28706781,14.4352776 C5.55586523,14.1794778 5.55586523,13.765844 5.28706781,13.5127654 L1.65544301,10.0540248 Z" id="Icon-Path" fill-rule="nonzero" transform="translate(2.745763, 10.055215) rotate(-180.000000) translate(-2.745763, -10.055215) "></path>
                    <path d="M2.48124905,20.1104294 C1.88816431,20.1104294 1.32985922,19.8791595 0.910672782,19.4595828 C0.49331685,19.0482331 0.259927019,18.4915399 0.259000995,17.9001104 C0.257181257,17.3050245 0.488740579,16.7446748 0.911588036,16.3232699 L7.1902321,10.0570429 L0.916164307,3.78715951 C0.498808375,3.3739816 0.266333799,2.81820245 0.26450329,2.2258589 C0.262672782,1.63077301 0.494232104,1.07042331 0.917079562,0.649018405 C1.33443549,0.230355828 1.89365583,0 2.4904016,0 C3.08714736,0 3.64545244,0.230355828 4.06372363,0.649932515 L11.9440626,8.53596319 C12.7760287,9.44276074 12.7467406,10.7892454 11.9047067,11.6293129 L4.0582321,19.4604969 C3.63263888,19.8809877 3.0743338,20.1104294 2.48124905,20.1104294 Z" id="Fill-1"></path>
                </g>
                <g id="Group-57" transform="translate(144.139701, 74.863835) rotate(-90.000000) translate(-144.139701, -74.863835) translate(137.639701, 64.363835)" fill="#FF8300">
                    <path d="M1.65544301,10.0540248 L5.28992735,6.59800558 C5.55872478,6.34220573 5.55872478,5.92857193 5.28992735,5.67549335 C5.02112993,5.4196935 4.58647877,5.42241478 4.31768134,5.67549335 L0.19993354,9.5914081 C-0.0602852445,9.83904412 -0.0660043387,10.2363503 0.179916711,10.4921501 L4.3148218,14.4352776 C4.44922051,14.5631775 4.62651243,14.6257669 4.8009448,14.6257669 C4.97537717,14.6257669 5.15266909,14.5631775 5.28706781,14.4352776 C5.55586523,14.1794778 5.55586523,13.765844 5.28706781,13.5127654 L1.65544301,10.0540248 Z" id="Icon-Path" fill-rule="nonzero" transform="translate(2.745763, 10.055215) rotate(-180.000000) translate(-2.745763, -10.055215) "></path>
                    <path d="M2.48124905,20.1104294 C1.88816431,20.1104294 1.32985922,19.8791595 0.910672782,19.4595828 C0.49331685,19.0482331 0.259927019,18.4915399 0.259000995,17.9001104 C0.257181257,17.3050245 0.488740579,16.7446748 0.911588036,16.3232699 L7.1902321,10.0570429 L0.916164307,3.78715951 C0.498808375,3.3739816 0.266333799,2.81820245 0.26450329,2.2258589 C0.262672782,1.63077301 0.494232104,1.07042331 0.917079562,0.649018405 C1.33443549,0.230355828 1.89365583,0 2.4904016,0 C3.08714736,0 3.64545244,0.230355828 4.06372363,0.649932515 L11.9440626,8.53596319 C12.7760287,9.44276074 12.7467406,10.7892454 11.9047067,11.6293129 L4.0582321,19.4604969 C3.63263888,19.8809877 3.0743338,20.1104294 2.48124905,20.1104294 Z" id="Fill-1"></path>
                </g>
                <g id="Group-57" transform="translate(281.453520, 75.050276) rotate(90.000000) translate(-281.453520, -75.050276) translate(274.953520, 64.550276)" fill="#FF8300">
                    <path d="M1.65544301,10.0540248 L5.28992735,6.59800558 C5.55872478,6.34220573 5.55872478,5.92857193 5.28992735,5.67549335 C5.02112993,5.4196935 4.58647877,5.42241478 4.31768134,5.67549335 L0.19993354,9.5914081 C-0.0602852445,9.83904412 -0.0660043387,10.2363503 0.179916711,10.4921501 L4.3148218,14.4352776 C4.44922051,14.5631775 4.62651243,14.6257669 4.8009448,14.6257669 C4.97537717,14.6257669 5.15266909,14.5631775 5.28706781,14.4352776 C5.55586523,14.1794778 5.55586523,13.765844 5.28706781,13.5127654 L1.65544301,10.0540248 Z" id="Icon-Path" fill-rule="nonzero" transform="translate(2.745763, 10.055215) rotate(-180.000000) translate(-2.745763, -10.055215) "></path>
                    <path d="M2.48124905,20.1104294 C1.88816431,20.1104294 1.32985922,19.8791595 0.910672782,19.4595828 C0.49331685,19.0482331 0.259927019,18.4915399 0.259000995,17.9001104 C0.257181257,17.3050245 0.488740579,16.7446748 0.911588036,16.3232699 L7.1902321,10.0570429 L0.916164307,3.78715951 C0.498808375,3.3739816 0.266333799,2.81820245 0.26450329,2.2258589 C0.262672782,1.63077301 0.494232104,1.07042331 0.917079562,0.649018405 C1.33443549,0.230355828 1.89365583,0 2.4904016,0 C3.08714736,0 3.64545244,0.230355828 4.06372363,0.649932515 L11.9440626,8.53596319 C12.7760287,9.44276074 12.7467406,10.7892454 11.9047067,11.6293129 L4.0582321,19.4604969 C3.63263888,19.8809877 3.0743338,20.1104294 2.48124905,20.1104294 Z" id="Fill-1"></path>
                </g>
            </g>
        </g>
    </g>
</svg>